<svg width="98" height="55" viewBox="0 0 98 55" fill="none" xmlns="http://www.w3.org/2000/svg">
<path d="M76.6049 17.1321H58.5102L59.0838 16.4348L38.0397 1.11236C37.7444 0.896288 37.3813 0.778142 37.007 0.776367H27.6796C27.3663 0.776367 27.0591 0.858324 26.7925 1.01306C26.526 1.1678 26.3106 1.3892 26.1704 1.65246C26.0303 1.91571 25.971 2.21042 25.9991 2.50356C26.0273 2.79669 26.1417 3.07668 26.3298 3.31215L35.3602 14.3174L38.0599 12.3775L31.1217 3.92707H36.4401L54.5484 17.1131H27.5514L10.6108 3.05223C10.304 2.79576 9.90783 2.65369 9.49713 2.65284H1.68825C1.39592 2.65269 1.10856 2.72388 0.854339 2.85943C0.600113 2.99499 0.387736 3.19025 0.238033 3.4261C0.0883309 3.66195 0.00643273 3.93028 0.000363753 4.2048C-0.00570523 4.47932 0.0642596 4.75062 0.20341 4.9921L7.18215 17.1131H1.68825C1.24075 17.1131 0.811579 17.2801 0.495146 17.5773C0.178714 17.8745 0.000940471 18.2776 0.000940471 18.698V26.0517C0.000326448 26.3717 0.103262 26.6844 0.296117 26.9481C0.488972 27.2119 0.762643 27.4145 1.08082 27.5288C1.94473 27.8395 22.3882 35.2186 28.692 35.2186H40.4154L26.3567 52.3351C26.1687 52.5705 26.0542 52.8505 26.0261 53.1437C25.998 53.4368 26.0573 53.7315 26.1974 53.9948C26.3376 54.258 26.553 54.4794 26.8195 54.6342C27.0861 54.7889 27.3932 54.8708 27.7066 54.8708H37.034C37.4083 54.8691 37.7714 54.7509 38.0667 54.5349L64.6115 35.1932H87.8761C91.9594 35.1932 98 32.9744 98 28.2198C98 23.0595 86.614 17.1321 76.6049 17.1321ZM87.8559 32.0679H64.0108C63.6362 32.0677 63.2724 32.1861 62.9782 32.4039L36.4266 51.7455H31.1082L45.1736 34.629C45.4056 34.3459 45.528 33.9969 45.5207 33.6397C45.5133 33.2825 45.3766 32.9383 45.1331 32.6638C44.9691 32.4781 44.7625 32.3298 44.5287 32.2299C44.2949 32.1299 44.0401 32.0811 43.7833 32.0869H28.6852C24.2442 32.0869 9.78734 27.2879 3.36881 24.993V20.3209H10.0101C10.3016 20.3192 10.5878 20.2469 10.841 20.1109C11.0941 19.9749 11.3055 19.7798 11.4548 19.5446C11.6041 19.3093 11.6863 19.0418 11.6933 18.768C11.7003 18.4942 11.632 18.2233 11.4949 17.9816L4.50943 5.8606H8.8627L25.7966 19.9278C26.1074 20.1814 26.5052 20.321 26.9169 20.3209H76.6049C85.9053 20.3209 94.6051 25.7918 94.6051 28.2769C94.6254 30.6225 90.6906 32.0679 87.8761 32.0679H87.8559Z" fill="white"/>
</svg>
