<svg width="78" height="77" viewBox="0 0 78 77" fill="none" xmlns="http://www.w3.org/2000/svg">
<g clip-path="url(#clip0_503_942)">
<path d="M71.8881 60.3087C70.5879 57.4328 68.2454 55.2352 65.2922 54.1209C62.4492 53.0482 59.3683 53.1064 56.5761 54.2727L54.2878 50.1291L61.3969 44.2511C61.9472 43.7959 62.0245 42.9809 61.5696 42.4305C61.1146 41.8802 60.2994 41.8028 59.7489 42.2578L53.0157 47.8253L51.9981 45.9827C51.3175 44.7527 50.2188 43.8023 48.9049 43.3067C47.7123 42.8567 46.3824 42.8051 45.1596 43.162C43.9139 43.5261 42.8482 44.2657 42.0796 45.2984L29.6943 61.8453C28.6938 63.1824 26.9029 63.7044 25.3396 63.1143C24.5668 62.8227 23.9248 62.299 23.4823 61.5985C23.0406 60.9017 22.8431 60.0976 22.9111 59.2762L24.1243 45.0255L36.6321 49.7447C36.7825 49.8014 36.9368 49.8283 37.0883 49.8283C37.6109 49.8283 38.103 49.5092 38.2985 48.9914C38.5505 48.3234 38.2133 47.5773 37.545 47.3251L24.3525 42.3475L26.0713 22.1598L62.4125 35.8715C62.4193 35.8741 62.4257 35.8766 62.4326 35.879L65.8876 37.1826L62.9483 39.6129C62.3981 40.0679 62.3208 40.8831 62.7757 41.4334C63.0314 41.7426 63.4007 41.9025 63.7729 41.9025C64.0633 41.9025 64.3552 41.8055 64.5962 41.6059L69.2524 37.7558C69.6078 37.462 69.7797 37.0014 69.7039 36.5466C69.6282 36.092 69.3162 35.7119 68.885 35.5492L64.265 33.8062C64.3184 33.2156 64.3486 32.6192 64.3486 32.0211C64.3486 28.2672 63.2822 24.6196 61.2649 21.473C60.8796 20.8717 60.0795 20.697 59.4784 21.0823C58.8771 21.4677 58.7024 22.2677 59.0877 22.8688C60.8375 25.598 61.7625 28.763 61.7625 32.0211C61.7625 32.2991 61.7533 32.5768 61.7401 32.8535L31.4945 21.4417C34.7043 17.4052 39.5604 15.0387 44.78 15.0387C49.3159 15.0387 53.5805 16.8052 56.7882 20.013C57.2932 20.518 58.1119 20.518 58.6168 20.013C59.1218 19.508 59.1218 18.6893 58.6168 18.1844C54.9206 14.4883 50.0066 12.4527 44.7798 12.4527C38.4866 12.4527 32.6534 15.4392 28.9714 20.49L26.299 19.4818L26.7201 14.5362C26.9437 11.9091 25.3768 9.42402 22.9099 8.49325L20.1257 7.44278L20.5673 6.27259L21.4799 3.85401C21.7319 3.18598 21.3947 2.43989 20.7264 2.18769C20.0581 1.93533 19.3121 2.27281 19.0601 2.94114L18.6041 4.14998L7.82697 0.0832768C7.50619 -0.0377874 7.15022 -0.0265081 6.83786 0.114859C6.52534 0.256075 6.28186 0.515649 6.1608 0.836732L4.36484 5.59644C4.11278 6.26447 4.44996 7.01056 5.11829 7.26276L15.8957 11.3293L15.4397 12.5382C15.1877 13.2062 15.5249 13.9523 16.1932 14.2045C16.3436 14.2612 16.4979 14.2881 16.6493 14.2881C17.1719 14.2881 17.664 13.969 17.8595 13.4512L19.2136 9.86241L21.9977 10.9129C23.3873 11.4371 24.2698 12.837 24.1439 14.3168L20.3346 59.0599C20.2196 60.4503 20.5532 61.8069 21.2976 62.9816C22.0312 64.1428 23.1427 65.0493 24.4274 65.534C27.0617 66.5281 30.0795 65.6483 31.7657 63.3949L44.1527 46.8455C44.5848 46.2648 45.1841 45.8496 45.8849 45.6446C46.5723 45.444 47.3207 45.4732 47.9925 45.7266C48.7328 46.006 49.3521 46.5417 49.7353 47.2344L50.9881 49.5026L48.5844 51.4902L44.0608 49.7835C43.3925 49.5312 42.6465 49.8686 42.3945 50.537C42.1424 51.205 42.4796 51.9511 43.1479 52.2033L48.3736 54.1751C48.5217 54.2309 48.6763 54.2584 48.8297 54.2584C49.126 54.2584 49.4183 54.1567 49.6538 53.9618L52.2604 51.8067L54.3107 55.5194C52.3882 56.869 50.9132 58.7602 50.0658 61.0061C49.0225 63.7715 49.0499 66.8053 50.1434 69.549C50.4079 70.2124 51.1598 70.536 51.8234 70.2716C52.4867 70.0074 52.8102 69.2552 52.546 68.5916C51.6921 66.4487 51.6707 64.0792 52.4857 61.919C53.1133 60.2556 54.1825 58.8424 55.5715 57.8016L56.6577 59.7687C55.7424 60.5215 55.0046 61.5144 54.557 62.7004C53.1912 66.3201 55.0252 70.3763 58.6449 71.7423C59.4581 72.049 60.2926 72.1944 61.1142 72.1944C63.9507 72.1944 66.6276 70.4611 67.6867 67.6543C69.0525 64.0345 67.2188 59.9783 63.5988 58.6123C62.0373 58.0233 60.3949 58.0306 58.9219 58.5189L57.8363 56.5529C59.9462 55.7459 62.2487 55.7369 64.3804 56.541C66.6872 57.4113 68.517 59.1279 69.5327 61.3745C70.5485 63.6212 70.6285 66.1288 69.758 68.4357C68.8877 70.7425 67.1711 72.5723 64.9245 73.5881C62.6778 74.6039 60.17 74.6838 57.8633 73.8133C56.5482 73.3172 55.3945 72.5534 54.4344 71.5432C53.9425 71.0256 53.1239 71.0048 52.6063 71.4966C52.0886 71.9885 52.0677 72.8071 52.5597 73.3247C53.7903 74.6197 55.2676 75.5983 56.9503 76.2331C58.3076 76.7452 59.7186 77.0004 61.127 77.0004C62.7829 77.0004 64.4354 76.6474 65.9897 75.9447C68.8656 74.6444 71.0632 72.3019 72.1775 69.3487C73.291 66.3952 73.1886 63.1848 71.8881 60.3087ZM16.8084 8.90953L7.2409 5.29941L8.12384 2.95934L17.6915 6.56931L16.8084 8.90953ZM57.9406 62.0931L59.9887 65.8017C60.2245 66.2289 60.6662 66.4698 61.1217 66.4698C61.3331 66.4698 61.5476 66.4179 61.7457 66.3084C62.3708 65.9633 62.5978 65.1766 62.2525 64.5514L60.2051 60.8443C61.0062 60.6739 61.8631 60.7217 62.6847 61.0315C64.9703 61.8939 66.1283 64.4551 65.2659 66.7409C64.8481 67.8481 64.0241 68.7264 62.9458 69.214C61.8673 69.7015 60.6638 69.7399 59.5567 69.3221C57.2711 68.4597 56.1129 65.8984 56.9754 63.6127C57.1965 63.0267 57.5298 62.5157 57.9406 62.0931Z" fill="#83C1D8"/>
<path d="M51.8497 27.3376C52.5638 27.3376 53.1428 26.7587 53.1428 26.0445C53.1428 25.3304 52.5638 24.7515 51.8497 24.7515C51.1356 24.7515 50.5566 25.3304 50.5566 26.0445C50.5566 26.7587 51.1356 27.3376 51.8497 27.3376Z" fill="#83C1D8"/>
<path d="M52.2511 22.9684C52.9652 22.9684 53.5441 22.3895 53.5441 21.6754C53.5441 20.9612 52.9652 20.3823 52.2511 20.3823C51.5369 20.3823 50.958 20.9612 50.958 21.6754C50.958 22.3895 51.5369 22.9684 52.2511 22.9684Z" fill="#83C1D8"/>
<path d="M56.7569 26.6222C57.4711 26.6222 58.05 26.0433 58.05 25.3292C58.05 24.6151 57.4711 24.0361 56.7569 24.0361C56.0428 24.0361 55.4639 24.6151 55.4639 25.3292C55.4639 26.0433 56.0428 26.6222 56.7569 26.6222Z" fill="#83C1D8"/>
</g>
<defs>
<clipPath id="clip0_503_942">
<rect width="77" height="77" fill="white" transform="translate(0.112305)"/>
</clipPath>
</defs>
</svg>
