<svg width="250" height="110" viewBox="0 0 250 110" fill="none" xmlns="http://www.w3.org/2000/svg">
<path d="M32.9023 40.3904H10.2226C6.71141 49.7504 5.75381 54.7828 5.50827 59.5038H0C3.83041 51.5044 6.86692 44.0705 11.0247 33.9893L24.9141 0H25.2333L49.4353 59.5038H40.5713L32.9023 40.3904ZM32.3457 38.9479L21.5665 12.2368L12.5389 34.5548L10.7792 38.9561H32.3457V38.9479Z" fill="#3C3935"/>
<path d="M106.549 53.5042L105.034 59.5038H77.2385V1.27859H85.3825V58.0612H86.8967C91.6931 58.0612 98.0773 57.1843 106.385 53.5042H106.549Z" fill="#3C3935"/>
<path d="M178.032 43.505C178.032 53.3403 169.324 59.5038 153.912 59.5038H135.145V1.27859H154.395C167.736 1.27859 174.521 6.47493 174.521 14.8759C174.521 22.6377 167.736 27.2767 160.468 28.711V28.8667C170.282 29.5142 178.032 34.6286 178.032 43.505ZM152.39 2.55719H143.289V28.8667H153.593C161.418 28.8667 165.895 23.1048 165.895 15.7529C165.895 8.55674 161.737 2.55719 152.39 2.55719ZM169.087 44.6278C169.087 35.9891 163.734 30.1535 154.952 30.1535H143.289V57.6678C144.966 58.0694 149.435 58.2252 151.514 58.2252C163.734 58.2252 169.087 53.1846 169.087 44.6278Z" fill="#3C3935"/>
<path d="M233.459 40.3904H210.779C207.268 49.7504 206.302 54.7828 206.065 59.5038H200.557C204.387 51.5044 207.423 44.0705 211.581 33.9893L225.479 0H225.798L250 59.5038H241.136L233.459 40.3904ZM232.902 38.9479L222.123 12.2368L213.095 34.5548L211.336 38.9561H232.902V38.9479Z" fill="#3C3935"/>
<path d="M194.582 110C191.774 110 188.607 109.025 187.257 108.328L187.134 108.262L187.821 105.853L188.026 106.107C189.466 107.877 192.339 109.164 194.868 109.164C197.757 109.164 199.771 107.41 199.771 104.91C199.771 102.148 197.463 100.853 194.893 99.6729L193.338 98.9844C191.161 97.9927 187.51 96.3289 187.51 92.3784C187.51 88.7557 190.522 86.2313 194.835 86.2313C197.307 86.2313 199.844 87.0755 201.269 87.9033L201.383 87.9689L200.769 90.1162L200.565 89.9031C198.862 88.1246 196.595 87.0591 194.492 87.0591C191.472 87.0591 190.113 88.977 190.113 90.8785C190.113 93.3455 192.175 94.493 194.868 95.7388L196.423 96.4518C199.059 97.6812 202.341 99.2139 202.341 103.271C202.341 107.246 199.157 110 194.582 110ZM92.6584 110C85.7423 110 80.9134 105.205 80.9134 98.3369C80.9134 91.2145 85.906 86.2313 93.0594 86.2313C99.9754 86.2313 104.804 91.026 104.804 97.8943C104.813 105.025 99.8117 110 92.6584 110ZM92.8139 87.0673C87.9031 87.0673 84.7356 91.3538 84.7356 97.9927C84.7356 104.673 88.0586 109.164 93.0021 109.164C97.8556 109.164 100.982 104.877 100.982 98.2386C100.99 91.6653 97.6264 87.0673 92.8139 87.0673ZM159.159 109.631V86.6083H172.5L172.933 88.9114H172.729C169.872 87.9771 167.049 87.5099 164.2 87.5099H162.653V97.2059H163.914C167.196 97.2059 169.43 96.9928 170.38 96.5912L170.413 96.5748H170.674V98.8451H170.47L170.38 98.8287C169.283 98.3697 166.869 98.0911 163.914 98.0911H162.653V108.721H164.29C166.107 108.721 169.676 108.525 173.195 107.205L173.228 107.197H173.539L172.852 109.623H159.159V109.631ZM139.966 109.631L138.091 89.4605L130.684 108.205H130.34L122.131 90.1818L121.313 99.55C120.945 103.5 120.912 106.648 121.19 109.459L121.206 109.639H118.939L118.988 109.434C119.52 107.09 119.921 104.115 120.355 99.4844L121.354 88.3295L120.666 86.9198V86.6247H124.366L131.748 103.033L138.214 86.6247H141.341L143.485 109.648H139.966V109.631ZM61.9005 109.631V98.0992H51.1622V109.631H47.651V86.6083H51.1622V97.2059H61.9005V86.6083H65.4117V109.631H61.9005Z" fill="#3C3935"/>
</svg>
