<svg width="83" height="56" viewBox="0 0 83 56" fill="none" xmlns="http://www.w3.org/2000/svg">
<path d="M82.2047 16.9273V13.7589H73.9734L70.6984 16.4584L65.7893 5.94568C64.3636 2.53015 61.4719 0.730469 57.4168 0.730469H24.8282C20.7933 0.730469 17.8747 2.53013 16.4826 5.88864L11.5399 16.4584L8.27158 13.7589H0V16.9273H7.0073L9.56948 19.0438L6.20705 21.6926C5.07246 22.593 4.16068 23.7165 3.53568 24.9841C2.91068 26.2517 2.58759 27.6329 2.58907 29.0307V41.0706C2.58585 42.0929 2.8658 43.0982 3.40126 43.9873C3.93671 44.8764 4.70913 45.6184 5.64216 46.14V51.2538C5.64393 52.3121 6.09087 53.3266 6.88501 54.0749C7.67915 54.8232 8.75573 55.2443 9.87882 55.246H16.6844C17.8075 55.2443 18.884 54.8232 19.6782 54.0749C20.4723 53.3266 20.9193 52.3121 20.921 51.2538V46.9575H61.519V51.2538C61.5208 52.3121 61.9677 53.3266 62.7619 54.0749C63.556 54.8232 64.6326 55.2443 65.7557 55.246H72.5612C73.6843 55.2443 74.7609 54.8232 75.555 54.0749C76.3492 53.3266 76.7961 52.3121 76.7979 51.2538V45.9753C77.65 45.4394 78.3487 44.7138 78.832 43.8627C79.3153 43.0116 79.5683 42.0612 79.5685 41.0959V29.056C79.5798 27.6577 79.2652 26.2742 78.647 25.003C78.0288 23.7318 77.1221 22.6039 75.9909 21.699L72.6285 19.0438L75.1906 16.9273H82.2047ZM19.5828 7.12432C20.4974 4.93812 22.1651 3.9179 24.8282 3.9179H57.3832C60.0732 3.9179 61.714 4.93814 62.6555 7.18137L68.0354 18.651L64.1888 21.8701H18.0495L14.2029 18.651L19.5828 7.12432ZM17.5653 51.2475C17.5653 51.466 17.4732 51.6755 17.3093 51.83C17.1453 51.9845 16.923 52.0713 16.6911 52.0713H9.90572C9.67386 52.0713 9.45149 51.9845 9.28754 51.83C9.12359 51.6755 9.03148 51.466 9.03148 51.2475V46.9511H17.5855L17.5653 51.2475ZM73.4422 51.2475C73.4422 51.466 73.3501 51.6755 73.1861 51.83C73.0222 51.9845 72.7998 52.0713 72.5679 52.0713H65.7826C65.5507 52.0713 65.3283 51.9845 65.1644 51.83C65.0004 51.6755 64.9083 51.466 64.9083 51.2475V46.9511H73.4624L73.4422 51.2475ZM73.7851 24.1323C74.5472 24.7345 75.1596 25.487 75.5791 26.3367C75.9986 27.1864 76.2149 28.1125 76.2128 29.0496V41.0896C76.2128 41.8038 75.9117 42.4889 75.3757 42.9939C74.8397 43.499 74.1128 43.7827 73.3548 43.7827H8.79612C8.42111 43.7827 8.04978 43.713 7.7034 43.5776C7.35702 43.4422 7.04239 43.2437 6.77753 42.9936C6.51267 42.7434 6.30278 42.4464 6.15989 42.1197C6.01699 41.793 5.94389 41.4429 5.94477 41.0896V29.0496C5.94269 28.1125 6.15904 27.1864 6.57853 26.3367C6.99802 25.487 7.61041 24.7345 8.37245 24.1323L12.098 21.173L13.0798 21.9778L16.7449 25.0385H65.4329L69.0912 21.9841L70.0798 21.173L73.7851 24.1323Z" fill="white"/>
<path d="M53.6599 37.2546H28.8174V40.0642H53.6599V37.2546Z" fill="white"/>
<path d="M30.7043 34.5308C30.8086 34.2808 30.8322 34.0066 30.7721 33.7436C30.7119 33.4806 30.5707 33.2409 30.3667 33.0555L26.0967 29.195C25.9626 29.0734 25.8048 28.9783 25.6323 28.915C25.4598 28.8518 25.2759 28.8217 25.0913 28.8264C24.9066 28.8312 24.7247 28.8707 24.556 28.9427C24.3873 29.0147 24.235 29.1178 24.108 29.2462C23.9809 29.3745 23.8815 29.5255 23.8154 29.6906C23.7493 29.8557 23.7178 30.0317 23.7228 30.2084C23.7278 30.3852 23.769 30.5593 23.8443 30.7207C23.9196 30.8822 24.0273 31.0279 24.1614 31.1495L25.8492 32.6894H19.6607C16.7353 32.6894 15.7226 29.8896 15.6551 29.7496C15.5353 29.4146 15.2824 29.1383 14.9511 28.9805C14.6199 28.8227 14.2371 28.7962 13.8856 28.9067C13.5341 29.0172 13.2422 29.2558 13.0732 29.5708C12.9043 29.8858 12.8718 30.2518 12.9828 30.5895C13.0503 30.7834 14.6706 35.3816 19.6607 35.3816H29.416C29.6948 35.3786 29.9663 35.296 30.1958 35.1445C30.4254 34.9929 30.6024 34.7792 30.7043 34.5308Z" fill="white"/>
<path d="M62.8254 32.6894H56.6346L58.323 31.1495C58.4571 31.0279 58.5649 30.8822 58.6402 30.7207C58.7155 30.5593 58.7568 30.3852 58.7618 30.2084C58.7667 30.0317 58.7352 29.8557 58.6691 29.6906C58.603 29.5255 58.5036 29.3745 58.3764 29.2462C58.2493 29.1178 58.097 29.0147 57.9282 28.9427C57.7595 28.8707 57.5775 28.8312 57.3928 28.8264C57.208 28.8217 57.0241 28.8518 56.8515 28.915C56.6789 28.9783 56.5211 29.0734 56.3869 29.195L52.1153 33.0555C51.9098 33.2406 51.7673 33.4805 51.7062 33.744C51.6451 34.0076 51.6683 34.2826 51.7727 34.5334C51.877 34.7842 52.0578 34.9992 52.2915 35.1504C52.5253 35.3017 52.8011 35.3822 53.0833 35.3815H62.8141C67.8175 35.3815 69.4271 30.7834 69.4946 30.5895C69.6057 30.2518 69.5732 29.8858 69.4042 29.5708C69.2351 29.2558 68.9431 29.0172 68.5915 28.9067C68.2399 28.7962 67.8569 28.8227 67.5255 28.9805C67.1942 29.1383 66.9412 29.4146 66.8213 29.7496C66.7875 29.8734 65.7632 32.6894 62.8254 32.6894Z" fill="white"/>
</svg>
