<svg width="58" height="71" viewBox="0 0 58 71" fill="none" xmlns="http://www.w3.org/2000/svg">
<path d="M57.1713 33.2872C57.5552 28.0116 57.1546 22.7113 55.9809 17.5403C52.5513 1.35607 40.0767 0 28.6578 0C17.239 0 4.7577 1.35607 1.33474 17.5403C0.161984 22.7115 -0.240871 28.0114 0.137739 33.2872C0.810224 44.1612 9.55253 52.3357 17.9855 56.4292L8.5707 67.601C8.42569 67.7633 8.31675 67.9514 8.25034 68.1541C8.18392 68.3568 8.16141 68.5699 8.18409 68.781C8.20677 68.9921 8.27419 69.1967 8.38238 69.3827C8.49057 69.5688 8.63731 69.7324 8.81389 69.864C8.99047 69.9956 9.19331 70.0924 9.41036 70.1488C9.62741 70.2051 9.85425 70.2197 10.0774 70.1919C10.3006 70.164 10.5156 70.0943 10.7096 69.9866C10.9036 69.879 11.0727 69.7358 11.2068 69.5654L14.5693 65.5986C14.7068 65.637 14.8495 65.6563 14.9929 65.6556H42.3295C42.4566 65.6569 42.5832 65.642 42.7061 65.6113L46.0282 69.5971C46.1623 69.7675 46.3314 69.9107 46.5254 70.0183C46.7194 70.1259 46.9344 70.1957 47.1576 70.2236C47.3808 70.2514 47.6076 70.2368 47.8247 70.1804C48.0417 70.1241 48.2445 70.0273 48.4211 69.8957C48.5977 69.7641 48.7445 69.6004 48.8527 69.4144C48.9608 69.2284 49.0283 69.0237 49.0509 68.8127C49.0736 68.6016 49.0511 68.3884 48.9847 68.1857C48.9182 67.983 48.8093 67.795 48.6643 67.6327L39.3033 56.4483C47.7296 52.361 56.5122 44.1739 57.1713 33.2872ZM40.0767 62.4872H17.2122L21.1731 57.7727C23.5208 58.8015 26.0788 59.3345 28.6679 59.3345C31.2571 59.3345 33.8151 58.8015 36.1628 57.7727L40.0767 62.4872ZM28.6444 56.1504C21.3816 56.1504 4.34748 47.4373 3.47997 33.0845C3.12147 28.0761 3.50397 23.045 4.61648 18.1359C7.54851 4.29001 17.656 3.14307 28.6444 3.14307C39.6328 3.14307 49.7403 4.29001 52.6656 18.1359C53.7812 23.0425 54.1637 28.0718 53.8021 33.0781C52.948 47.4627 35.9409 56.1758 28.6578 56.1758L28.6444 56.1504Z" fill="white"/>
<path d="M47.5081 16.0765C47.3938 15.5569 47.266 14.9232 47.0912 14.0994C46.0421 8.97292 36.5062 7.12891 28.6583 7.12891C20.8104 7.12891 11.2746 8.94757 10.2188 14.0994C10.0506 14.9232 9.91615 15.5569 9.80855 16.0765C9.31763 18.4084 9.25036 18.7126 8.34923 24.7135C8.06006 26.6146 8.7662 28.5156 10.4407 30.3153C14.8724 35.1313 24.8924 38.1983 28.6583 38.1983C32.4242 38.1983 42.4376 35.1313 46.876 30.3153C48.5505 28.4966 49.2498 26.6146 48.9674 24.7135C48.0461 18.7126 47.999 18.4084 47.5081 16.0765ZM44.3339 28.2368C40.7832 32.0959 31.7988 35.0299 28.6583 35.0299C25.5178 35.0299 16.5536 32.0959 12.9759 28.2368C11.9739 27.1469 11.5368 26.1076 11.678 25.1635C12.5657 19.2449 12.6195 19.0041 13.1037 16.6912C13.218 16.1652 13.3458 15.5315 13.5206 14.7014C13.9645 12.5469 19.7411 10.3227 28.6583 10.3227C37.5755 10.3227 43.3387 12.5659 43.796 14.7014C43.9641 15.5315 44.0986 16.1652 44.2062 16.6912C44.6904 19.0041 44.7442 19.2259 45.6386 25.1635C45.7798 26.1076 45.3561 27.1405 44.3339 28.2368Z" fill="white"/>
<path d="M19.1289 42.4628C17.035 41.5714 15.0929 40.3926 13.3657 38.9648L12.0207 37.8179C11.9399 37.7216 11.8499 37.6325 11.7517 37.5518C10.3126 36.3858 9.35767 37.2032 9.10213 37.4821C8.60449 38.0143 8.28167 38.8888 9.5863 40.0168C9.86874 40.2639 10.3462 40.6505 11.1196 41.3222C13.1327 42.9859 15.3996 44.3551 17.8444 45.384C18.0575 45.4679 18.2861 45.5109 18.5169 45.5108C18.9085 45.5174 19.2903 45.395 19.5963 45.1647C19.9024 44.9344 20.1135 44.6106 20.1932 44.2493C20.2729 43.888 20.2162 43.5117 20.033 43.1856C19.8497 42.8594 19.5514 42.6038 19.1894 42.4628H19.1289Z" fill="white"/>
<path d="M45.5372 37.552C45.3422 37.7231 44.9051 38.1033 43.9031 38.9461C42.1739 40.3682 40.2349 41.5465 38.1466 42.444C37.9431 42.5247 37.7583 42.6424 37.6031 42.7904C37.4478 42.9384 37.3249 43.1137 37.2416 43.3064C37.1582 43.4991 37.116 43.7054 37.1172 43.9135C37.1185 44.1216 37.1632 44.3275 37.2488 44.5193C37.3345 44.7111 37.4594 44.8852 37.6164 45.0315C37.7735 45.1778 37.9596 45.2935 38.1641 45.3721C38.3686 45.4506 38.5876 45.4905 38.8084 45.4893C39.0292 45.4881 39.2477 45.446 39.4512 45.3653C41.8961 44.3363 44.163 42.9671 46.1761 41.3034C46.9562 40.6697 47.4269 40.2451 47.7094 39.998C49.014 38.87 48.6979 37.9955 48.2003 37.4633C47.9313 37.2034 46.9764 36.3923 45.5372 37.552Z" fill="white"/>
</svg>
