<svg width="78" height="76" viewBox="0 0 78 76" fill="none" xmlns="http://www.w3.org/2000/svg">
<g clip-path="url(#clip0_503_901)">
<path d="M72.8651 23.6509H63.1549C63.0237 23.6509 62.8933 23.669 62.7673 23.7046L39.2685 30.361C38.5227 30.5724 38.0914 31.3403 38.3055 32.0767C38.5197 32.8131 39.2987 33.2386 40.0437 33.0271L63.3526 26.4246H72.865C73.6572 26.4246 74.302 27.061 74.302 27.8429V31.7872H74.0209H63.1547C62.9061 31.7872 62.662 31.8522 62.4471 31.976L22.7814 54.7992V37.9171L35.4042 34.3414C36.15 34.13 36.5813 33.3621 36.3671 32.6257C36.153 31.8893 35.375 31.4638 34.6289 31.6753L22.7814 35.0316V27.1702L41.6792 17.3698C43.696 16.3239 44.6392 13.9382 43.8728 11.8204C43.1025 9.69095 40.8318 8.4374 38.5903 8.9029C31.6782 10.3408 14.6742 13.8436 6.08582 15.3074C2.62458 15.8968 0.112305 18.8426 0.112305 22.312V30.8626C0.112305 31.6285 0.741389 32.2494 1.5174 32.2494C2.29342 32.2494 2.9225 31.6285 2.9225 30.8626V27.719H19.9711V36.8408C19.9711 36.8411 19.9711 36.8415 19.9711 36.8418V64.4207H2.9225V35.6706C2.9225 34.9047 2.29342 34.2838 1.5174 34.2838C0.741389 34.2838 0.112305 34.9047 0.112305 35.6706V65.8079C0.112305 66.5738 0.741389 67.1947 1.5174 67.1947H21.3763C22.1524 67.1947 22.7814 66.5738 22.7814 65.8079V58.0099L63.5344 34.5611H64.1853V37.6122C64.1853 38.3781 64.8144 38.999 65.5904 38.999H74.021C74.797 38.999 75.4261 38.3781 75.4261 37.6122V34.5611H75.7072C76.4832 34.5611 77.1123 33.9401 77.1123 33.1742V27.8431C77.1123 25.5313 75.207 23.6509 72.8651 23.6509ZM21.0295 24.9454H2.9225V22.312C2.9225 20.1962 4.45363 18.3999 6.56376 18.0407C15.1983 16.5691 32.2427 13.0581 39.1698 11.6169C40.0425 11.4354 40.9262 11.924 41.2262 12.7532C41.5246 13.5779 41.1574 14.507 40.3719 14.9143L21.0295 24.9454ZM72.6159 36.2252H66.9955V34.5609H72.6159V36.2252Z" fill="#83C1D8"/>
<path d="M74.4257 46.8508L70.7992 43.2715C70.2506 42.7297 69.3609 42.7299 68.8122 43.2715L65.1859 46.8508C62.6386 49.3653 62.6386 53.4563 65.1859 55.9707C66.4597 57.2278 68.1326 57.8564 69.8057 57.8564C71.479 57.8564 73.1519 57.2279 74.4257 55.9707C76.973 53.4563 76.973 49.3652 74.4257 46.8508ZM72.4385 54.0092C70.9867 55.4419 68.6246 55.4421 67.1728 54.0092C65.7211 52.5763 65.7211 50.2448 67.1728 48.812L69.8056 46.2134L72.4383 48.812C73.89 50.2448 73.89 52.5765 72.4385 54.0092Z" fill="#83C1D8"/>
</g>
<defs>
<clipPath id="clip0_503_901">
<rect width="77" height="76" fill="white" transform="translate(0.112305)"/>
</clipPath>
</defs>
</svg>
