<svg width="60" height="60" viewBox="0 0 60 60" fill="none" xmlns="http://www.w3.org/2000/svg">
<path d="M58.6721 2H2.1123V58.0233H58.6721V2Z" stroke="#83C1D8" stroke-width="2.5" stroke-linecap="round" stroke-linejoin="round"/>
<path d="M27.9926 5.89355H7.25V54.1548H27.9926V5.89355Z" stroke="#83C1D8" stroke-width="2.5" stroke-linecap="round" stroke-linejoin="round"/>
<path d="M53.5366 5.89355H32.7939V54.1548H53.5366V5.89355Z" stroke="#83C1D8" stroke-width="2.5" stroke-linecap="round" stroke-linejoin="round"/>
<path d="M21.5639 30.8564C22.1094 30.8564 22.5517 30.4811 22.5517 30.0183C22.5517 29.5554 22.1094 29.1802 21.5639 29.1802C21.0184 29.1802 20.5762 29.5554 20.5762 30.0183C20.5762 30.4811 21.0184 30.8564 21.5639 30.8564Z" stroke="#83C1D8" stroke-width="2.5" stroke-linecap="round" stroke-linejoin="round"/>
<path d="M39.268 30.8564C39.8135 30.8564 40.2558 30.4811 40.2558 30.0183C40.2558 29.5554 39.8135 29.1802 39.268 29.1802C38.7225 29.1802 38.2803 29.5554 38.2803 30.0183C38.2803 30.4811 38.7225 30.8564 39.268 30.8564Z" stroke="#83C1D8" stroke-width="2.5" stroke-linecap="round" stroke-linejoin="round"/>
</svg>
