<svg width="75" height="44" viewBox="0 0 75 44" fill="none" xmlns="http://www.w3.org/2000/svg">
<g clip-path="url(#clip0_503_827)">
<mask id="mask0_503_827" style="mask-type:luminance" maskUnits="userSpaceOnUse" x="0" y="0" width="75" height="45">
<path d="M74.9916 0H0V44.0085H74.9916V0Z" fill="white"/>
</mask>
<g mask="url(#mask0_503_827)">
<path d="M34.107 14.895C34.107 14.3791 35.4272 13.6178 37.4706 13.6178C39.514 13.6178 40.8342 14.3791 40.8342 14.895C40.8342 15.411 39.514 16.1722 37.4706 16.1722C35.4272 16.1722 34.107 15.4194 34.107 14.895ZM4.45678 14.1253C12.4538 11.5878 31.6684 4.30526 36.9072 2.28373L70.8291 13.9646L37.4958 28.589L15.481 18.9466L34.0734 16.4683C35.1172 17.0562 36.2999 17.3485 37.4958 17.3141C40.0605 17.3141 41.9862 16.2906 41.9862 14.9204C41.9862 13.5502 40.0605 12.5267 37.4958 12.5267C35.2842 12.5267 33.5436 13.2964 33.1147 14.3791L11.5456 17.2549L4.45678 14.1253ZM55.8527 40.1768C55.8527 40.5994 55.6864 41.0047 55.3902 41.3043C55.094 41.6038 54.6918 41.7732 54.2718 41.7755H23.108C22.6879 41.7732 22.2858 41.6038 21.9896 41.3043C21.6934 41.0047 21.5271 40.5994 21.5271 40.1768V24.03L37.0585 30.7966C37.1967 30.8565 37.3453 30.8881 37.4958 30.8897C37.6488 30.8873 37.8001 30.8557 37.9415 30.7966L55.8527 22.9558V40.1768ZM9.60309 35.271L10.7467 28.4537C10.7774 28.2627 10.7579 28.0669 10.69 27.8859C10.6222 27.7048 10.5084 27.5448 10.3599 27.4218C10.2676 27.3423 10.1935 27.2438 10.1427 27.1328C10.0919 27.0218 10.0656 26.9011 10.0656 26.7789C10.0656 26.5546 10.1542 26.3395 10.3119 26.1808C10.4696 26.0222 10.6835 25.9331 10.9065 25.9331C11.1295 25.9331 11.3434 26.0222 11.5011 26.1808C11.6588 26.3395 11.7474 26.5546 11.7474 26.7789C11.7503 26.9801 11.6749 27.1744 11.5372 27.3203C11.4335 27.4412 11.3567 27.583 11.3118 27.7361C11.2668 27.8892 11.2548 28.0502 11.2765 28.2084L12.2435 35.271H9.60309ZM10.259 23.7847C9.57883 23.9332 8.96951 24.3111 8.5321 24.8557C8.09469 25.4002 7.85542 26.0788 7.854 26.7789C7.85144 27.4487 8.07039 28.1003 8.47631 28.6313L7.23174 36.2015C7.20305 36.3597 7.21006 36.5225 7.25227 36.6776C7.29448 36.8328 7.37083 36.9765 7.47564 37.098C7.57855 37.2219 7.70711 37.3217 7.85236 37.3903C7.99761 37.459 8.15605 37.4949 8.31654 37.4956H13.5049C13.6633 37.496 13.82 37.4621 13.9642 37.3961C14.1084 37.3302 14.2368 37.2337 14.3406 37.1132C14.4443 36.9928 14.5211 36.8513 14.5655 36.6983C14.6099 36.5453 14.621 36.3845 14.598 36.2268L13.5217 28.3437C13.9251 27.6499 14.0435 26.8253 13.8519 26.0451C13.6604 25.2648 13.1739 24.5905 12.4958 24.1653V20.0715L19.3239 23.0657V40.1768C19.3217 41.1894 19.7189 42.1614 20.4283 42.8797C21.1377 43.598 22.1014 44.004 23.108 44.0084H54.2718C54.7709 44.0073 55.265 43.9074 55.7257 43.7142C56.1864 43.521 56.6048 43.2385 56.957 42.8827C57.3091 42.5269 57.5882 42.1048 57.7782 41.6406C57.9682 41.1763 58.0654 40.6789 58.0642 40.1768V22.0254L74.3273 14.895C74.5327 14.8053 74.7063 14.6551 74.8253 14.4642C74.9443 14.2734 75.0031 14.0508 74.994 13.8257C74.9849 13.6006 74.9083 13.3835 74.7743 13.203C74.6403 13.0225 74.4552 12.887 74.2432 12.8143L37.2435 0.0676605C37.0026 -0.0254933 36.736 -0.0254933 36.4951 0.0676605C23.8311 4.91426 3.02725 12.6282 1.09317 12.7551C0.839958 12.7574 0.595149 12.8468 0.399368 13.0083C0.203587 13.1699 0.0686314 13.3939 0.0168459 13.6432C-0.0318257 13.8948 0.00569921 14.1555 0.123293 14.3828C0.240887 14.6102 0.431572 14.7907 0.664305 14.895L10.2842 19.1242L10.259 23.7847Z" fill="white"/>
</g>
</g>
<defs>
<clipPath id="clip0_503_827">
<rect width="75" height="44" fill="white"/>
</clipPath>
</defs>
</svg>
