<svg width="39" height="48" viewBox="0 0 39 48" fill="none" xmlns="http://www.w3.org/2000/svg">
<path fill-rule="evenodd" clip-rule="evenodd" d="M19.2367 47.8813C19.2367 47.8813 38.0623 34.8227 38.0623 19.5878C38.0623 14.3928 36.0789 9.41055 32.5484 5.73713C29.0179 2.06371 24.2296 0 19.2367 0C14.2439 0 9.4555 2.06371 5.92502 5.73713C2.39454 9.41055 0.411133 14.3928 0.411133 19.5878C0.411133 34.8227 19.2367 47.8813 19.2367 47.8813ZM25.5124 19.5882C25.5124 23.1942 22.7029 26.1174 19.2372 26.1174C15.7715 26.1174 12.962 23.1942 12.962 19.5882C12.962 15.9821 15.7715 13.0589 19.2372 13.0589C22.7029 13.0589 25.5124 15.9821 25.5124 19.5882Z" fill="#62C8EE"/>
</svg>
