<svg width="70" height="62" viewBox="0 0 70 62" fill="none" xmlns="http://www.w3.org/2000/svg">
<g clip-path="url(#clip0_503_1024)">
<mask id="mask0_503_1024" style="mask-type:luminance" maskUnits="userSpaceOnUse" x="0" y="-1" width="70" height="63">
<path d="M70 -0.0088501H0V61.9912H70V-0.0088501Z" fill="white"/>
</mask>
<g mask="url(#mask0_503_1024)">
<path d="M17.8755 18.3025C16.4715 9.83748 8.88094 12.1485 6.76611 13.3439C0.096934 17.116 2.32583 26.7409 4.23005 33.0454C4.82246 34.6215 5.09407 36.3019 5.02863 37.9863C5.00656 38.4308 4.89569 38.8662 4.70267 39.2664C4.50965 39.6666 4.23844 40.0233 3.90538 40.3151C3.50079 40.6489 3.02046 40.8762 2.50741 40.9766C1.99436 41.0771 1.46464 41.0475 0.965695 40.8906C0.298777 40.625 4.09843 44.4767 9.22316 40.0937M50.3264 34.3028C50.3264 35.6664 63.3312 34.9314 63.2873 36.1357C63.2435 37.3399 63.182 41.4484 63.0592 43.8215C63.0592 44.2022 64.042 44.1137 64.3141 44.7069C64.5861 45.3002 62.6906 47.9655 62.9627 47.9655L65.6391 50.6218C66.6219 46.9295 65.7093 46.044 65.4899 44.6007C65.2706 43.1574 65.0775 36.8529 65.4899 36.0029C66.0077 34.9315 65.4285 32.7621 64.3141 32.3105C61.3295 31.6717 58.3076 31.2251 55.2668 30.9734M26.8263 32.5053C28.8611 33.348 30.9518 34.0462 33.083 34.595C34.7152 34.9315 42.5076 34.9049 44.1924 34.8606M43.3149 29.2822C43.2032 30.5645 43.4398 31.8532 43.9994 33.01C44.2789 33.5862 44.4599 34.2059 44.5347 34.8429C44.5786 34.8429 44.2363 46.2388 44.2451 46.7523C44.2451 48.116 44.719 47.567 44.64 49.5947C44.5434 51.9323 44.5347 54.9075 44.4118 57.2716C44.4118 57.6612 44.9646 57.5815 45.2893 58.1571C45.614 58.7326 45.0085 61.0348 45.2893 61.0348H48.7468C48.3607 58.9983 47.1058 59.4941 46.8864 58.042C46.667 56.5898 46.8864 50.3916 46.8864 49.453C46.8864 48.5144 47.3165 48.8155 47.5885 47.2482C47.8166 45.9732 48.3432 42.6084 48.466 41.2005C48.4704 41.2801 48.4704 41.36 48.466 41.4396C49.0891 36.4899 49.8525 31.6995 49.8612 31.6552M11.1888 51.4719C11.5223 46.2831 16.3486 45.3622 18.5863 44.096C23.0435 41.3635 27.0891 37.9999 30.5996 34.108M49.7209 34.7986L50.2824 34.6392C51.4708 34.3971 52.6101 33.9541 53.6522 33.3288C54.2489 32.7355 55.2668 31.6287 56.118 28.7067C57.1184 25.3065 55.4862 21.8089 55.7582 19.1348C56.0215 16.6201 56.82 13.1491 57.9608 11.6261L58.3118 11.7147C58.4526 12.0806 58.6138 12.4383 58.7944 12.7861C59.1718 13.5741 61.1725 14.3445 61.427 14.557C62.1107 15.0628 62.7245 15.6584 63.2523 16.3279C63.9104 17.2134 64.4106 19.2322 64.63 19.4536C65.4403 19.8746 66.3665 20.0117 67.2625 19.8432C68.169 19.3019 68.8254 18.4197 69.0878 17.3905C69.2019 16.381 67.8768 15.4867 67.5434 14.1585C67.0932 11.9396 66.9808 9.66442 67.2099 7.41131C67.3411 6.54265 67.1639 5.65516 66.7097 4.90547C66.464 4.49815 69.5353 1.73551 69.0965 1.27507C67.8768 0.0354231 63.261 2.08084 61.8131 1.88604C59.9788 1.61014 58.1052 1.80275 56.3637 2.44625C54.6222 3.08975 53.0684 4.1636 51.8445 5.56956C49.8788 7.66811 48.9311 9.78435 46.3161 12.5736C43.7011 15.3628 39.8487 19.1702 35.2066 19.1171C30.5645 19.064 29.8537 18.6832 28.8095 18.2936C27.7652 17.904 19.4814 16.6467 17.9107 18.2936C15.7783 20.4984 13.9793 22.0303 13.4265 24.4919C12.8736 26.9534 15.085 34.1788 14.0934 35.6398C12.8649 37.455 11.1362 38.7478 8.68789 40.5099C7.98587 41.0146 8.92479 41.6521 8.98621 42.6527C9.23192 46.469 8.19647 55.8372 8.62645 56.2799L9.82866 57.5019L8.95113 61.0437H12.742C12.7493 60.3649 12.6053 59.6931 12.3208 59.078C12.0313 58.4847 11.1274 56.5633 11.1011 56.3508C11.0761 55.9911 11.0761 55.6302 11.1011 55.2705C11.1011 54.0663 11.1449 52.3839 11.3117 49.577C11.6539 44.0428 12.1892 44.1668 14.4357 42.8209C18.9914 40.1244 23.0427 36.6418 26.4051 32.5319C27.2826 31.3365 28.5111 28.7244 27.2826 26.5284" stroke="white" stroke-width="2.04" stroke-linecap="round" stroke-linejoin="round"/>
</g>
</g>
<defs>
<clipPath id="clip0_503_1024">
<rect width="70" height="62" fill="white"/>
</clipPath>
</defs>
</svg>
