<svg width="77" height="76" viewBox="0 0 77 76" fill="none" xmlns="http://www.w3.org/2000/svg">
<g clip-path="url(#clip0_503_908)">
<path d="M33.0096 42.7427H5.67871C5.06373 42.7427 4.56543 43.2411 4.56543 43.856V61.4632C4.56543 62.078 5.06373 62.5764 5.67871 62.5764H33.0096C33.6246 62.5764 34.1229 62.078 34.1229 61.4632V43.856C34.1229 43.2411 33.6246 42.7427 33.0096 42.7427ZM31.8963 60.3499H6.79199V44.9692H31.8963V60.3499Z" fill="#83C1D8"/>
<path d="M73.3457 38.2899H70.199C69.584 38.2899 69.0857 38.7884 69.0857 39.4032C69.0857 40.018 69.584 40.5165 70.199 40.5165H73.3457C73.6435 40.5165 73.8857 40.7587 73.8857 41.0563V64.2635C73.8857 64.5613 73.6435 64.8035 73.3457 64.8035H57.3442V40.5165H65.0058C65.6207 40.5165 66.119 40.018 66.119 39.4032C66.119 38.7884 65.6207 38.2899 65.0058 38.2899H34.1229V36.4965C34.1229 34.86 32.7914 33.5283 31.1549 33.5283H15.7692C15.1542 33.5283 14.6559 34.0268 14.6559 34.6416C14.6559 35.2564 15.1542 35.7549 15.7692 35.7549H31.1549C31.5637 35.7549 31.8963 36.0875 31.8963 36.4965V38.2899H6.79199V36.4965C6.79199 36.0877 7.12464 35.7549 7.53344 35.7549H10.5616C11.1765 35.7549 11.6748 35.2564 11.6748 34.6416C11.6748 34.0268 11.1765 33.5283 10.5616 33.5283H7.53344C5.89691 33.5283 4.56543 34.8598 4.56543 36.4965V38.2899H2.87888C1.35339 38.2899 0.112305 39.5308 0.112305 41.0563V64.2635C0.112305 65.789 1.35339 67.0301 2.87888 67.0301H2.9148V69.0418C2.9148 70.4847 4.0885 71.6583 5.53131 71.6583H53.617C54.232 71.6583 54.7303 71.1599 54.7303 70.5451C54.7303 69.9302 54.232 69.4318 53.617 69.4318H5.53131C5.31637 69.4318 5.14137 69.2569 5.14137 69.0418V67.0301H71.0832V69.0418C71.0832 69.2569 70.9082 69.4318 70.6933 69.4318H58.8284C58.2134 69.4318 57.7151 69.9302 57.7151 70.5451C57.7151 71.1599 58.2134 71.6583 58.8284 71.6583H70.6933C72.1361 71.6583 73.3098 70.4847 73.3098 69.0418V67.0301H73.3457C74.8712 67.0301 76.1123 65.789 76.1123 64.2635V41.0563C76.1123 39.531 74.8714 38.2899 73.3457 38.2899ZM2.87888 64.8034C2.58112 64.8034 2.33887 64.5611 2.33887 64.2633V41.0563C2.33887 40.7587 2.58112 40.5165 2.87888 40.5165H36.3495V64.8035H2.87888V64.8034ZM38.576 40.5165H55.1176V64.8035H38.576V40.5165Z" fill="#83C1D8"/>
<path d="M17.9971 49.5488H20.6917C21.3066 49.5488 21.8049 49.0504 21.8049 48.4355C21.8049 47.8207 21.3066 47.3223 20.6917 47.3223H17.9971C17.3821 47.3223 16.8838 47.8207 16.8838 48.4355C16.8838 49.0504 17.3822 49.5488 17.9971 49.5488Z" fill="#83C1D8"/>
<path d="M73.2918 4.34277H39.1702C37.6149 4.34277 36.3496 5.60805 36.3496 7.16323V14.0978C36.3496 15.6531 37.6149 16.9183 39.1702 16.9183H73.2918C74.8472 16.9183 76.1125 15.653 76.1125 14.0978V7.16323C76.1125 5.60805 74.8472 4.34277 73.2918 4.34277ZM38.5762 14.0978V7.16323C38.5762 6.83563 38.8426 6.56934 39.1702 6.56934H55.1179V14.6918H39.1702C38.8426 14.6918 38.5762 14.4254 38.5762 14.0978ZM73.8859 14.0978C73.8859 14.4254 73.6194 14.6917 73.2918 14.6917H57.3443V6.56919H73.2918C73.6194 6.56919 73.8859 6.83563 73.8859 7.16309V14.0978Z" fill="#83C1D8"/>
<path d="M37.463 26.1003C38.078 26.1003 38.5763 25.6019 38.5763 24.9871V22.3909C38.5763 22.3263 38.6289 22.2739 38.6934 22.2739H41.2957V24.9871C41.2957 25.6019 41.794 26.1003 42.409 26.1003C43.024 26.1003 43.5223 25.6019 43.5223 24.9871V22.2739H45.7337V24.9871C45.7337 25.6019 46.232 26.1003 46.847 26.1003C47.4619 26.1003 47.9602 25.6019 47.9602 24.9871V22.2739H50.1718V24.9871C50.1718 25.6019 50.6701 26.1003 51.2851 26.1003C51.9001 26.1003 52.3984 25.6019 52.3984 24.9871V22.2739H55.0006C55.0654 22.2739 55.1178 22.3265 55.1178 22.3909V24.9871C55.1178 25.6019 55.6161 26.1003 56.231 26.1003C56.846 26.1003 57.3443 25.6019 57.3443 24.9871V22.3909C57.3443 21.0986 56.2929 20.0474 55.0006 20.0474H38.6933C37.401 20.0474 36.3496 21.0987 36.3496 22.3909V24.9871C36.3498 25.6019 36.8481 26.1003 37.463 26.1003Z" fill="#83C1D8"/>
<path d="M9.88511 20.6575C11.1811 19.9914 12.5754 19.4718 14.0317 19.1031V20.024C14.0317 21.5338 15.2599 22.7621 16.7696 22.7621H21.9201C23.4299 22.7621 24.6582 21.5338 24.6582 20.024V19.1031C26.1144 19.4718 27.5086 19.9914 28.8048 20.6575C28.9678 20.7413 29.1416 20.7809 29.3129 20.7809C29.7168 20.7809 30.1066 20.5603 30.304 20.1763C30.5852 19.6295 30.3695 18.9582 29.8228 18.6772C28.2151 17.8509 26.4755 17.2266 24.6584 16.8135V5.45605C24.6584 4.84123 24.16 4.34277 23.5451 4.34277C22.9301 4.34277 22.4318 4.84123 22.4318 5.45605V16.4196C21.4165 16.2895 20.3851 16.2209 19.345 16.2209C18.3049 16.2209 17.2736 16.2893 16.2583 16.4196V5.45605C16.2583 4.84123 15.76 4.34277 15.145 4.34277C14.53 4.34277 14.0317 4.84123 14.0317 5.45605V16.8133C12.2145 17.2266 10.4749 17.8509 8.86727 18.6772C8.32043 18.9584 8.1049 19.6295 8.38619 20.1763C8.66718 20.7232 9.33856 20.9387 9.88511 20.6575ZM19.3449 18.4475C20.3874 18.4475 21.4196 18.5208 22.4316 18.6642V20.024C22.4316 20.306 22.2022 20.5355 21.9201 20.5355H16.7696C16.4878 20.5355 16.2583 20.306 16.2583 20.024V18.6642C17.2702 18.5209 18.3026 18.4475 19.3449 18.4475Z" fill="#83C1D8"/>
<path d="M61.2578 11.7446C61.8727 11.7446 62.3711 11.2462 62.3711 10.6313C62.3711 10.0165 61.8727 9.51807 61.2578 9.51807C60.643 9.51807 60.1445 10.0165 60.1445 10.6313C60.1445 11.2462 60.643 11.7446 61.2578 11.7446Z" fill="#83C1D8"/>
<path d="M50.9297 11.7446C51.5445 11.7446 52.043 11.2462 52.043 10.6313C52.043 10.0165 51.5445 9.51807 50.9297 9.51807C50.3148 9.51807 49.8164 10.0165 49.8164 10.6313C49.8164 11.2462 50.3148 11.7446 50.9297 11.7446Z" fill="#83C1D8"/>
<path d="M61.2578 52.5205C61.8727 52.5205 62.3711 52.0221 62.3711 51.4072C62.3711 50.7924 61.8727 50.2939 61.2578 50.2939C60.643 50.2939 60.1445 50.7924 60.1445 51.4072C60.1445 52.0221 60.643 52.5205 61.2578 52.5205Z" fill="#83C1D8"/>
<path d="M51.0469 52.5205C51.6617 52.5205 52.1602 52.0221 52.1602 51.4072C52.1602 50.7924 51.6617 50.2939 51.0469 50.2939C50.432 50.2939 49.9336 50.7924 49.9336 51.4072C49.9336 52.0221 50.432 52.5205 51.0469 52.5205Z" fill="#83C1D8"/>
</g>
<defs>
<clipPath id="clip0_503_908">
<rect width="76" height="76" fill="white" transform="translate(0.112305)"/>
</clipPath>
</defs>
</svg>
