<svg width="65" height="65" viewBox="0 0 65 65" fill="none" xmlns="http://www.w3.org/2000/svg">
<g clip-path="url(#clip0_503_1007)">
<path d="M64.0479 46.7697C64.5737 46.7697 65 46.3435 65 45.8175V43.9761C65 42.1146 63.5787 40.6002 61.8317 40.6002H60.2907V38.6492C60.2907 37.284 59.18 36.1734 57.815 36.1734H50.1509C48.7857 36.1734 47.6751 37.2842 47.6751 38.6492V43.7299C40.8287 42.9313 32.3065 42.93 25.4485 43.7299V38.6492C25.4485 37.284 24.3378 36.1734 22.9728 36.1734H22.3672C27.5869 32.9949 33.4243 28.6847 37.9757 24.4871L40.9644 28.5958C41.7685 29.7015 43.321 29.9431 44.4229 29.1417L50.6208 24.6336C50.6208 24.6336 50.6208 24.6336 50.6208 24.6334C51.7247 23.8306 51.9696 22.2791 51.1666 21.175L50.0189 19.5972L51.2651 18.6909C52.678 17.6631 52.9366 15.6024 51.8416 14.097L46.6734 6.99155C45.5783 5.4864 43.5383 5.09754 42.1254 6.12522L40.8791 7.03179L39.7316 5.45415C38.9287 4.34991 37.3772 4.10528 36.2731 4.90813L30.0752 9.41622C28.9713 10.2191 28.7264 11.7706 29.5294 12.8747L32.518 16.9834C26.5098 20.3658 19.6187 25.3767 14.5434 30.0576L12.3449 27.0355C11.1069 25.3334 8.71153 24.9551 7.00972 26.1934L2.98456 29.1211C1.28161 30.36 0.903925 32.7533 2.1426 34.4564L2.49985 34.9476L1.25381 35.8539C-0.187235 36.9019 -0.395311 38.9731 0.677314 40.4478L5.84557 47.553C6.41101 48.3306 7.23976 48.8251 8.12361 48.9565V52.7622C8.12361 54.6238 9.54497 56.1383 11.292 56.1383H12.8329V58.0892C12.8329 59.4543 13.9436 60.5649 15.3086 60.5649H22.9728C24.3379 60.5649 25.4485 59.4542 25.4485 58.0892V53.0089C28.1545 53.3238 31.1964 53.5217 34.3208 53.5845C34.3274 53.5848 34.3339 53.5848 34.3404 53.5848C34.8573 53.5848 35.2816 53.1709 35.2922 52.6517C35.3027 52.126 34.885 51.6911 34.3592 51.6806C31.2088 51.6171 28.1484 51.4144 25.4485 51.0915V45.6467C32.1842 44.8394 40.7996 44.8226 47.6751 45.6467V51.0915C44.9755 51.4144 41.9149 51.6171 38.7645 51.6806C38.2387 51.6911 37.8209 52.126 37.8315 52.6515C37.842 53.1709 38.266 53.5848 38.7832 53.5848C38.7897 53.5848 38.7963 53.5848 38.8028 53.5845C41.9274 53.5217 44.9693 53.3238 47.6751 53.0089V58.0892C47.6751 59.4543 48.7859 60.5649 50.1509 60.5649H57.815C59.1801 60.5649 60.2907 59.4542 60.2907 58.0892V56.1383H61.8317C63.5787 56.1383 65 54.6238 65 52.7622V50.2613C65 49.7353 64.5737 49.3091 64.0479 49.3091C63.522 49.3091 63.0957 49.7353 63.0957 50.2613V52.7622C63.0957 53.5599 62.517 54.2339 61.8318 54.2339H60.2908V42.5047H61.8318C62.5168 42.5047 63.0957 43.1786 63.0957 43.9762V45.8177C63.0956 46.3435 63.522 46.7697 64.0479 46.7697ZM43.2455 7.66529C43.7994 7.26259 44.6642 7.46686 45.1332 8.11191L50.3014 15.2173C50.7706 15.8623 50.6989 16.7479 50.1449 17.1508L48.8987 18.0571C48.1272 16.9961 42.7835 9.64969 41.9993 8.5716L43.2455 7.66529ZM31.0695 11.7547C30.8874 11.5042 30.945 11.1387 31.1954 10.9565L37.3934 6.44832C37.6449 6.26563 38.0098 6.32467 38.1914 6.57438C38.5768 7.10428 47.4587 19.3151 47.9186 19.9476C47.9189 19.9479 47.919 19.9481 47.9193 19.9484L49.6264 22.2952C49.8086 22.5457 49.7509 22.9112 49.5005 23.0934L43.3024 27.6016C43.0508 27.7844 42.6889 27.7293 42.5045 27.4755C42.1288 26.9592 31.5228 12.3779 31.0695 11.7547ZM33.6455 18.5337L36.8484 22.937C31.8945 27.5347 24.9459 32.6174 18.8733 36.0104L15.671 31.6078C20.6115 27.0222 27.5643 21.9315 33.6455 18.5337ZM8.12361 43.9761V46.9986C7.84038 46.8931 7.5786 46.6978 7.38589 46.4328L2.21763 39.3275C1.72696 38.6531 1.83665 37.785 2.37417 37.394L3.62021 36.4877C3.77128 36.6955 4.9541 38.3215 8.28801 42.9051C8.17452 43.2658 8.12361 43.638 8.12361 43.9761ZM12.8329 54.2338H11.292C10.6069 54.2338 10.028 53.5599 10.028 52.7621C10.028 51.9019 10.028 44.8728 10.028 43.976C10.028 43.6433 10.1378 43.2842 10.3553 43.0021C10.6143 42.6656 10.9646 42.5045 11.292 42.5045H12.8328V54.2338H12.8329ZM12.8329 38.649V40.6H11.292C11.2147 40.6 11.1381 40.604 11.0621 40.6099C11.0486 40.611 11.0351 40.612 11.0217 40.6132C10.4321 40.6666 9.88825 40.8924 9.43465 41.2434L3.6828 33.3359C3.06174 32.4823 3.25103 31.2822 4.10479 30.6612L8.12996 27.7335C8.97991 27.1148 10.1861 27.3049 10.8047 28.1556C11.498 29.1086 15.8946 35.1532 16.6366 36.1732H15.3085C13.9436 36.1732 12.8329 37.2839 12.8329 38.649ZM23.5442 58.0891C23.5442 58.3987 23.2825 58.6604 22.9729 58.6604H15.3088C14.9991 58.6604 14.7375 58.3987 14.7375 58.0891C14.7375 57.1929 14.7375 39.2334 14.7375 38.6492C14.7375 38.3395 14.9991 38.0779 15.3088 38.0779C17.2464 38.0779 18.3163 38.0779 18.8732 38.0779C19.2746 38.0779 19.4097 38.0779 19.4109 38.0779C19.9676 38.0779 21.0367 38.0779 22.9729 38.0779C23.2825 38.0779 23.5442 38.3395 23.5442 38.6492C23.5442 39.8274 23.5442 57.3645 23.5442 58.0891ZM58.3864 58.0891C58.3864 58.3987 58.1248 58.6604 57.8151 58.6604H50.151C49.8413 58.6604 49.5797 58.3987 49.5797 58.0891V38.6492C49.5797 38.3395 49.8413 38.0779 50.151 38.0779H57.8151C58.1248 38.0779 58.3864 38.3395 58.3864 38.6492C58.3864 39.8219 58.3864 57.4599 58.3864 58.0891Z" fill="white"/>
</g>
<defs>
<clipPath id="clip0_503_1007">
<rect width="65" height="65" fill="white"/>
</clipPath>
</defs>
</svg>
