<svg width="24" height="23" viewBox="0 0 24 23" fill="none" xmlns="http://www.w3.org/2000/svg">
<g clip-path="url(#clip0_67_629)">
<path d="M12 0.958496V22.0418" stroke="white" stroke-width="2" stroke-linecap="round" stroke-linejoin="round"/>
<path d="M17 4.7915H9.5C8.57174 4.7915 7.6815 5.14489 7.02513 5.77392C6.36875 6.40294 6 7.25609 6 8.14567C6 9.03525 6.36875 9.8884 7.02513 10.5174C7.6815 11.1465 8.57174 11.4998 9.5 11.4998H14.5C15.4283 11.4998 16.3185 11.8532 16.9749 12.4822C17.6313 13.1113 18 13.9644 18 14.854C18 15.7436 17.6313 16.5967 16.9749 17.2258C16.3185 17.8548 15.4283 18.2082 14.5 18.2082H6" stroke="white" stroke-width="2" stroke-linecap="round" stroke-linejoin="round"/>
</g>
<defs>
<clipPath id="clip0_67_629">
<rect width="24" height="23" fill="white"/>
</clipPath>
</defs>
</svg>
