<svg width="86" height="59" viewBox="0 0 86 59" fill="none" xmlns="http://www.w3.org/2000/svg">
<path d="M83.7539 6.32169C84.1387 6.31763 84.5064 6.18609 84.7785 5.95514C85.0506 5.72418 85.2056 5.41211 85.2104 5.08552V1.22052C85.2056 0.895388 85.05 0.584967 84.7774 0.356513C84.5048 0.128059 84.1371 -2.60474e-05 83.7539 3.97318e-09H18.2846C17.9015 -2.60474e-05 17.5338 0.128059 17.2611 0.356513C16.9885 0.584967 16.833 0.895388 16.8281 1.22052V56.7857C16.8281 57.1135 16.9816 57.4279 17.2547 57.6598C17.5279 57.8916 17.8983 58.0218 18.2846 58.0218H83.7539C84.1402 58.0218 84.5107 57.8916 84.7838 57.6598C85.057 57.4279 85.2104 57.1135 85.2104 56.7857V9.18523C85.2104 8.85738 85.057 8.54295 84.7838 8.31112C84.5107 8.0793 84.1402 7.94906 83.7539 7.94906C83.5635 7.94904 83.375 7.98113 83.1993 8.04344C83.0236 8.10576 82.8643 8.19705 82.7305 8.31205C82.5967 8.42705 82.4912 8.56346 82.42 8.71335C82.3488 8.86324 82.3134 9.02364 82.3158 9.18523V30.2158H76.5635C76.2078 30.2499 75.8794 30.394 75.6409 30.6206C75.4024 30.8472 75.2707 31.1403 75.2707 31.4441C75.2707 31.748 75.4024 32.0411 75.6409 32.2677C75.8794 32.4943 76.2078 32.6384 76.5635 32.6725H82.3158V55.6121H40.9619V49.6659C40.9619 49.3422 40.8104 49.0318 40.5407 48.8029C40.271 48.574 39.9053 48.4454 39.5239 48.4454C39.1425 48.4454 38.7767 48.574 38.507 48.8029C38.2373 49.0318 38.0858 49.3422 38.0858 49.6659V55.6121H19.6489V2.40975H38.0858V40.7311C38.0857 41.0562 38.2367 41.3683 38.5058 41.5997C38.775 41.8311 39.1408 41.9631 39.5239 41.9673C39.9087 41.9632 40.2764 41.8317 40.5485 41.6007C40.8206 41.3697 40.9756 41.0577 40.9804 40.7311V32.6255H66.792C66.9958 32.6451 67.2021 32.6279 67.3975 32.5751C67.5929 32.5223 67.773 32.435 67.926 32.3191C68.0789 32.2031 68.2013 32.0611 68.285 31.9022C68.3688 31.7434 68.4121 31.5713 68.4121 31.3972C68.4121 31.2232 68.3688 31.0511 68.285 30.8922C68.2013 30.7333 68.0789 30.5913 67.926 30.4753C67.773 30.3594 67.5929 30.2721 67.3975 30.2193C67.2021 30.1665 66.9958 30.1493 66.792 30.1689H40.9804V2.40975H82.3158V5.03858C82.3158 5.36374 82.4667 5.67581 82.7359 5.90719C83.0051 6.13858 83.3708 6.27063 83.7539 6.27475" fill="#83C1D8"/>
<path d="M4.06204 6.59841L6.18174 3.60926L8.28346 6.59841H4.06204ZM12.0199 7.18671L7.3674 0.5883C7.24371 0.408209 7.06955 0.25943 6.86185 0.156367C6.65414 0.0533044 6.41986 -0.00055596 6.18174 4.32704e-06C5.94124 -0.000237048 5.7046 0.0536205 5.49407 0.156525C5.28354 0.259429 5.10606 0.408009 4.9782 0.5883L0.307577 7.2185C0.17966 7.41133 0.112305 7.63089 0.112305 7.8545C0.112305 8.0781 0.17966 8.29766 0.307577 8.49049C0.430407 8.68541 0.610442 8.84736 0.828594 8.9593C1.04675 9.07123 1.29493 9.12899 1.54708 9.12647H4.78063V14.3575C4.81981 14.6642 4.98519 14.9475 5.24529 15.1531C5.50539 15.3588 5.84196 15.4725 6.19073 15.4725C6.5395 15.4725 6.87607 15.3588 7.13617 15.1531C7.39627 14.9475 7.56165 14.6642 7.60083 14.3575V9.12647H10.8524C11.1015 9.12614 11.3459 9.06703 11.5607 8.95525C11.7754 8.84346 11.9525 8.68303 12.0739 8.49049C12.2018 8.29766 12.2692 8.0781 12.2692 7.8545C12.2692 7.63089 12.2018 7.41133 12.0739 7.2185" fill="#83C1D8"/>
<path d="M6.14551 54.4259L4.03132 51.4318H8.27779L6.14551 54.4259ZM12.0545 49.5783C11.9325 49.3864 11.7542 49.2266 11.5382 49.1152C11.3223 49.0038 11.0763 48.9449 10.8258 48.9446H7.64537V16.8647C7.66795 16.6896 7.64813 16.5123 7.58714 16.3444C7.52615 16.1765 7.42535 16.0218 7.29145 15.8904C7.15754 15.759 6.99348 15.6538 6.81002 15.5819C6.62656 15.5099 6.42791 15.4727 6.22691 15.4727C6.02591 15.4727 5.82714 15.5099 5.64368 15.5819C5.46022 15.6538 5.29616 15.759 5.16226 15.8904C5.02835 16.0218 4.92755 16.1765 4.86656 16.3444C4.80558 16.5123 4.78575 16.6896 4.80833 16.8647V48.9446H1.5557C1.30206 48.9421 1.05229 48.9996 0.832844 49.1112C0.613397 49.2227 0.432404 49.3841 0.308845 49.5783C0.18017 49.7704 0.112305 49.9892 0.112305 50.212C0.112305 50.4347 0.18017 50.6535 0.308845 50.8456L4.9891 57.4359C5.11771 57.6155 5.29624 57.7635 5.50802 57.8661C5.7198 57.9686 5.95785 58.0222 6.19977 58.022C6.4393 58.0226 6.67487 57.9689 6.88381 57.8662C7.09274 57.7635 7.26793 57.6153 7.39236 57.4359L12.0726 50.8456C12.2013 50.6535 12.2692 50.4347 12.2692 50.212C12.2692 49.9892 12.2013 49.7704 12.0726 49.5783" fill="#83C1D8"/>
<path d="M77.5407 50.8016V47.1892L81.0252 48.9954L77.5407 50.8016ZM24.4978 50.8016L21.0132 48.9954L24.4978 47.1892V50.8016ZM84.5283 47.9698L76.8586 44.0053C76.635 43.8963 76.3803 43.8389 76.1211 43.8389C75.8618 43.8389 75.6071 43.8963 75.3835 44.0053C75.1575 44.11 74.9697 44.2634 74.8399 44.4492C74.7101 44.6351 74.6432 44.8467 74.6461 45.0615V47.8168H27.3924V45.0615C27.3953 44.8467 27.3283 44.6351 27.1985 44.4492C27.0687 44.2634 26.8809 44.11 26.6549 44.0053C26.4313 43.8963 26.1768 43.8389 25.9175 43.8389C25.6582 43.8389 25.4036 43.8963 25.18 44.0053L17.5103 47.9698C17.3024 48.0798 17.1311 48.2313 17.0119 48.4105C16.8927 48.5896 16.8296 48.7907 16.8281 48.9954C16.8275 49.1983 16.8899 49.3979 17.0094 49.5749C17.1289 49.7519 17.3015 49.9002 17.5103 50.0056L25.18 53.9701C25.4122 54.0906 25.6805 54.1542 25.9543 54.1538C26.2001 54.1554 26.4419 54.1026 26.6549 54.0007C26.8795 53.8986 27.0666 53.7479 27.1964 53.5647C27.3262 53.3814 27.394 53.1725 27.3924 52.9599V50.1893H74.6461V52.9599C74.6446 53.1725 74.7122 53.3814 74.842 53.5647C74.9719 53.7479 75.159 53.8986 75.3835 54.0007C75.5965 54.1026 75.8384 54.1554 76.0841 54.1538C76.3579 54.1542 76.6264 54.0906 76.8586 53.9701L84.5283 50.0056C84.7371 49.9002 84.9096 49.7519 85.0291 49.5749C85.1486 49.3979 85.2111 49.1983 85.2104 48.9954C85.209 48.7907 85.1458 48.5896 85.0266 48.4105C84.9075 48.2313 84.7361 48.0798 84.5283 47.9698Z" fill="#83C1D8"/>
</svg>
