<svg width="71" height="60" viewBox="0 0 71 60" fill="none" xmlns="http://www.w3.org/2000/svg">
<path d="M67.598 12.0073H56.7328V2.69798H67.598V12.0073ZM67.598 34.9065H56.7328V25.6102H67.598V34.9065ZM67.598 57.8058H56.7328V48.5094H67.598V57.8058ZM54.2103 57.8058H29.6839V48.5094H54.2103V57.8058ZM27.1613 57.8058H2.65002V48.5094H20.8853C21.1979 48.4804 21.4869 48.3544 21.6968 48.1558C21.9067 47.9571 22.0227 47.6996 22.0227 47.4328C22.0227 47.166 21.9067 46.9086 21.6968 46.7099C21.4869 46.5112 21.1979 46.3853 20.8853 46.3562H15.9922V37.0598H40.5035V46.382H25.1554C24.8428 46.411 24.5539 46.537 24.344 46.7357C24.1341 46.9344 24.018 47.1918 24.018 47.4586C24.018 47.7254 24.1341 47.9828 24.344 48.1815C24.5539 48.3802 24.8428 48.5062 25.1554 48.5352H27.1613V57.8058ZM2.65002 37.0598H13.5V46.382H2.65002V37.0598ZM2.65002 25.6102H27.1613V34.9065H2.65002V25.6102ZM2.65002 14.1476H13.5V23.4569H2.65002V14.1476ZM2.65002 2.69798H27.1613V12.0073H2.65002V2.69798ZM40.549 23.4569H16.0377V14.1476H40.549V23.4569ZM67.598 46.382H43.0716V37.0856H67.598V46.382ZM43.0868 14.1476H67.598V23.4569H51.171C50.8351 23.4569 50.5127 23.5692 50.2738 23.7696C50.0348 23.9699 49.8986 24.2421 49.8946 24.5271C49.8986 24.8133 50.0343 25.0868 50.2729 25.2892C50.5114 25.4916 50.8337 25.6068 51.171 25.6102H54.2103V34.9065H29.6839V25.6102H46.9466C47.2825 25.6068 47.6033 25.4912 47.8394 25.2884C48.0755 25.0857 48.2079 24.8121 48.2079 24.5271C48.2079 24.2433 48.075 23.9711 47.8385 23.7704C47.6019 23.5697 47.2811 23.4569 46.9466 23.4569H43.0868V14.1476ZM68.9201 0.557617H48.6333C48.2988 0.557617 47.978 0.67037 47.7414 0.871068C47.5049 1.07177 47.372 1.34397 47.372 1.6278C47.372 1.91163 47.5049 2.18383 47.7414 2.38453C47.978 2.58523 48.2988 2.69798 48.6333 2.69798H54.2103V12.0073H29.6839V2.69798H44.4696C44.8041 2.69798 45.125 2.58523 45.3615 2.38453C45.598 2.18383 45.7309 1.91163 45.7309 1.6278C45.7309 1.34397 45.598 1.07177 45.3615 0.871068C45.125 0.67037 44.8041 0.557617 44.4696 0.557617H1.3736C1.03909 0.557617 0.71826 0.67037 0.481726 0.871068C0.245191 1.07177 0.112305 1.34397 0.112305 1.6278V58.8889C0.112305 59.0294 0.144915 59.1686 0.2083 59.2984C0.271685 59.4283 0.364606 59.5463 0.481726 59.6456C0.598846 59.745 0.737911 59.8238 0.890936 59.8776C1.04396 59.9314 1.20797 59.9591 1.3736 59.9591H68.8593C69.0249 59.9591 69.1889 59.9314 69.3419 59.8776C69.495 59.8238 69.634 59.745 69.7512 59.6456C69.8683 59.5463 69.9612 59.4283 70.0246 59.2984C70.088 59.1686 70.1206 59.0294 70.1206 58.8889V1.6278C70.1206 1.48726 70.088 1.3481 70.0246 1.21826C69.9612 1.08842 69.8683 0.970443 69.7512 0.871068C69.634 0.771692 69.495 0.69286 69.3419 0.639079C69.1889 0.585297 69.0249 0.557617 68.8593 0.557617" fill="#83C1D8"/>
</svg>
