<svg width="21" height="22" viewBox="0 0 21 22" fill="none" xmlns="http://www.w3.org/2000/svg">
<path d="M15.4688 1.2168H5.53125C2.78709 1.2168 0.5625 3.44077 0.5625 6.18419V16.119C0.5625 18.8624 2.78709 21.0864 5.53125 21.0864H15.4688C18.2129 21.0864 20.4375 18.8624 20.4375 16.119V6.18419C20.4375 3.44077 18.2129 1.2168 15.4688 1.2168Z" stroke="#3C3935" stroke-linecap="round" stroke-linejoin="round"/>
<path d="M14.4743 10.5258C14.597 11.3526 14.4557 12.197 14.0706 12.9389C13.6856 13.6809 13.0763 14.2825 12.3295 14.6583C11.5826 15.0341 10.7363 15.1649 9.91085 15.0321C9.08539 14.8993 8.32283 14.5097 7.73163 13.9187C7.14043 13.3276 6.7507 12.5653 6.61787 11.74C6.48504 10.9148 6.61588 10.0687 6.99178 9.32205C7.36767 8.57543 7.96948 7.96632 8.7116 7.58135C9.45373 7.19637 10.2984 7.05515 11.1254 7.17775C11.969 7.30282 12.75 7.69582 13.3531 8.2987C13.9561 8.90159 14.3492 9.68239 14.4743 10.5258Z" stroke="#3C3935" stroke-linecap="round" stroke-linejoin="round"/>
<path d="M15.9658 5.6875H15.9758" stroke="#3C3935" stroke-linecap="round" stroke-linejoin="round"/>
</svg>
