<svg width="78" height="77" viewBox="0 0 78 77" fill="none" xmlns="http://www.w3.org/2000/svg">
<g clip-path="url(#clip0_503_955)">
<path d="M28.3921 14.9683C23.4531 14.9683 18.7255 16.4818 14.7204 19.3452C14.1265 19.7698 13.9895 20.5951 14.4139 21.189C14.8385 21.7828 15.6638 21.9199 16.2577 21.4955C19.8117 18.9545 24.0078 17.6115 28.3921 17.6115C39.9099 17.6115 49.2803 26.9819 49.2803 38.4997C49.2803 50.0175 39.9098 59.3881 28.3921 59.3881C16.8745 59.3881 7.50377 50.0175 7.50377 38.4997C7.50377 33.3586 9.38831 28.4181 12.81 24.5883C13.2964 24.0439 13.2494 23.2085 12.7052 22.7221C12.1611 22.2357 11.3253 22.2827 10.839 22.8271C6.98372 27.1422 4.86035 32.7082 4.86035 38.4999C4.86035 51.4753 15.4166 62.0314 28.3918 62.0314C41.3671 62.0314 51.9233 51.475 51.9233 38.4997C51.9233 25.5245 41.3672 14.9683 28.3921 14.9683Z" fill="#83C1D8"/>
<path d="M71.7572 8.76416H5.46756C2.51449 8.76416 0.112305 11.1664 0.112305 14.1193V62.8807C0.112305 65.8336 2.51449 68.2358 5.46756 68.2358H62.8948C63.6247 68.2358 64.2165 67.6441 64.2165 66.9142C64.2165 66.1844 63.6247 65.5926 62.8948 65.5926H5.46756C3.97208 65.5926 2.75572 64.3761 2.75572 62.8807V14.1193C2.75572 12.6238 3.97223 11.4074 5.46756 11.4074H71.7572C73.2525 11.4074 74.469 12.6239 74.469 14.1193V62.8807C74.469 64.3761 73.2525 65.5926 71.7572 65.5926H67.4768C66.7469 65.5926 66.1551 66.1844 66.1551 66.9142C66.1551 67.6441 66.7469 68.2358 67.4768 68.2358H71.7572C74.7101 68.2358 77.1124 65.8336 77.1124 62.8807V14.1193C77.1123 11.1664 74.7101 8.76416 71.7572 8.76416Z" fill="#83C1D8"/>
<path d="M46.2034 36.9302H34.7441C34.6076 36.3778 34.4014 35.8525 34.134 35.3648L35.9235 31.3223C37.0943 28.6799 36.8522 25.6558 35.2758 23.2331C33.6995 20.8106 31.0334 19.3643 28.1441 19.3643C27.4142 19.3643 26.8225 19.956 26.8225 20.6859V32.1475C26.2707 32.2839 25.7461 32.4894 25.259 32.7561L21.2148 30.9654C18.5726 29.7944 15.5489 30.0367 13.1261 31.6131C10.7033 33.1897 9.25684 35.8564 9.25684 38.7467C9.25684 39.4766 9.84862 40.0684 10.5785 40.0684H22.0391C22.1754 40.6203 22.381 41.1449 22.6476 41.632L20.858 45.6743C19.687 48.317 19.9293 51.3417 21.5063 53.7651C23.0825 56.1877 25.7487 57.6342 28.6377 57.6342C29.3675 57.6342 29.9593 57.0424 29.9593 56.3125V44.8529C30.5127 44.7164 31.039 44.5099 31.5274 44.2422L35.5666 46.0314C36.675 46.5229 37.8503 46.7657 39.0203 46.7657C40.6396 46.7657 42.2488 46.3006 43.6554 45.3857C46.0786 43.8097 47.5252 41.1426 47.5252 38.252C47.5252 37.522 46.9334 36.9302 46.2034 36.9302ZM21.9375 37.4254H12.0493C12.3856 35.9609 13.2751 34.6698 14.5677 33.829C16.238 32.7423 18.3225 32.5752 20.1442 33.3825L23.0813 34.683C22.5055 35.4816 22.1053 36.4143 21.9375 37.4254ZM27.3157 54.8413C25.8526 54.5048 24.5627 53.6156 23.7217 52.3234C22.6344 50.6524 22.4671 48.5671 23.2746 46.745L24.5741 43.81C25.3727 44.3856 26.3051 44.7858 27.3157 44.9538V54.8413ZM28.3916 42.4005C26.2409 42.4006 24.491 40.6508 24.491 38.4998C24.491 36.3491 26.2407 34.5991 28.3916 34.5991C30.5424 34.5991 32.2923 36.3491 32.2923 38.4998C32.2923 40.6507 30.5424 42.4005 28.3916 42.4005ZM32.2066 33.1882C31.4082 32.6129 30.4759 32.2133 29.4657 32.0458V22.157C30.9292 22.4933 32.2195 23.3824 33.0602 24.6747C34.1469 26.3451 34.314 28.43 33.5067 30.2518L32.2066 33.1882ZM42.2137 43.1696C40.5438 44.256 38.4594 44.4225 36.6376 43.6144L33.7036 42.3148C34.2788 41.5162 34.6786 40.5838 34.8462 39.5731H44.7325C44.3961 41.0378 43.5065 42.3288 42.2137 43.1696Z" fill="#83C1D8"/>
<path d="M69.7086 17.0703H57.8431C57.1133 17.0703 56.5215 17.6621 56.5215 18.3919C56.5215 19.1218 57.1133 19.7136 57.8431 19.7136H69.7086C70.4385 19.7136 71.0303 19.1218 71.0303 18.3919C71.0303 17.6621 70.4385 17.0703 69.7086 17.0703Z" fill="#83C1D8"/>
<path d="M69.7086 27.2905H57.8431C57.1133 27.2905 56.5215 27.8823 56.5215 28.6122C56.5215 29.342 57.1133 29.9338 57.8431 29.9338H69.7086C70.4385 29.9338 71.0303 29.342 71.0303 28.6122C71.0303 27.8823 70.4385 27.2905 69.7086 27.2905Z" fill="#83C1D8"/>
<path d="M69.7085 22.1802H68.0638C67.334 22.1802 66.7422 22.772 66.7422 23.5018C66.7422 24.2317 67.334 24.8234 68.0638 24.8234H69.7085C70.4383 24.8234 71.0301 24.2317 71.0301 23.5018C71.0301 22.7718 70.4383 22.1802 69.7085 22.1802Z" fill="#83C1D8"/>
<path d="M63.6584 22.1802H57.8431C57.1133 22.1802 56.5215 22.772 56.5215 23.5018C56.5215 24.2317 57.1133 24.8234 57.8431 24.8234H63.6584C64.3883 24.8234 64.9801 24.2317 64.9801 23.5018C64.9801 22.7718 64.3884 22.1802 63.6584 22.1802Z" fill="#83C1D8"/>
</g>
<defs>
<clipPath id="clip0_503_955">
<rect width="77" height="77" fill="white" transform="translate(0.112305)"/>
</clipPath>
</defs>
</svg>
