<svg width="53" height="59" viewBox="0 0 53 59" fill="none" xmlns="http://www.w3.org/2000/svg">
<g clip-path="url(#clip0_503_1016)">
<path d="M43.3272 24.5425C45.2103 24.5212 47.0472 23.9582 48.6175 22.9211C50.1878 21.884 51.4249 20.4168 52.1802 18.6956C52.9356 16.9744 53.1772 15.0722 52.8761 13.2174C52.5749 11.3626 51.7438 9.63387 50.4824 8.23866C49.2211 6.84345 47.583 5.84103 45.7649 5.35166C43.9467 4.86229 42.0256 4.90676 40.2322 5.47974C38.4387 6.05273 36.849 7.12989 35.6539 8.58197C34.4587 10.0341 33.7088 11.7994 33.4942 13.6661H19.3256L18.381 5.34394C18.352 5.12367 18.2586 4.91681 18.1124 4.7492C17.9663 4.58159 17.7739 4.46064 17.5593 4.40145L1.44486 0.0471387C1.30345 0.00877001 1.15584 -0.00143718 1.01048 0.0171105C0.86512 0.0356582 0.724844 0.0825881 0.597662 0.155228C0.47048 0.227869 0.358888 0.324793 0.269247 0.440467C0.179605 0.556141 0.113672 0.688297 0.0752182 0.829394C0.0367649 0.970492 0.026564 1.11778 0.0451526 1.26282C0.0637413 1.40786 0.110775 1.54782 0.183575 1.67473C0.256376 1.80163 0.353514 1.91297 0.469444 2.00242C0.585373 2.09186 0.717821 2.15765 0.85923 2.19602L16.2369 6.36183L17.0775 13.6756H8.74642C8.58967 13.6745 8.43448 13.7067 8.29117 13.7701C8.14786 13.8335 8.01969 13.9266 7.91519 14.0431C7.81166 14.161 7.73315 14.2987 7.68444 14.4477C7.63573 14.5967 7.61783 14.7541 7.6318 14.9102L12.1091 58.001C12.1351 58.2776 12.2638 58.5345 12.4701 58.7212C12.6764 58.9078 12.9452 59.0106 13.2237 59.0094H38.7272C39.0056 59.0106 39.2745 58.9078 39.4807 58.7212C39.687 58.5345 39.8158 58.2776 39.8418 58.001L43.28 24.8912L43.3272 24.5425ZM43.2139 7.24778C45.218 7.20153 47.1585 7.95156 48.6084 9.33288C50.0583 10.7142 50.8989 12.6136 50.9452 14.6133C50.9916 16.6131 50.2399 18.5492 48.8555 19.996C47.4711 21.4427 45.5675 22.2814 43.5634 22.3277L44.3285 14.9197C44.3472 14.7633 44.3316 14.6047 44.2826 14.4549C44.2337 14.3052 44.1527 14.1679 44.0451 14.0526C43.9406 13.936 43.8124 13.8429 43.6691 13.7795C43.5258 13.7162 43.3706 13.6839 43.2139 13.685H35.7518C36.0165 11.898 36.9154 10.2653 38.2849 9.08389C39.6544 7.90249 41.4035 7.25093 43.2139 7.24778V7.24778ZM41.9765 15.8998L41.1736 23.6471H20.4497L19.5618 15.8998H41.9765ZM17.3043 15.8998L18.2016 23.6471H10.7961L9.98381 15.8998H17.3043ZM37.7259 56.7663H14.2249L11.0134 25.8808H18.4472L20.8936 47.1717C20.9361 47.434 21.0706 47.6727 21.2729 47.8453C21.4753 48.0179 21.7325 48.1132 21.9988 48.1142H22.131C22.4188 48.0721 22.6786 47.9194 22.8551 47.6887C23.0316 47.458 23.1107 47.1676 23.0756 46.8796L20.6575 25.8431H40.8902L37.7259 56.7663Z" fill="white"/>
</g>
<defs>
<clipPath id="clip0_503_1016">
<rect width="53" height="59" fill="white"/>
</clipPath>
</defs>
</svg>
