<svg width="77" height="76" viewBox="0 0 77 76" fill="none" xmlns="http://www.w3.org/2000/svg">
<path d="M25.6342 39.6185C28.3635 42.2155 30.0613 45.8616 30.0613 49.8989C30.0613 57.7848 23.5843 64.1777 15.5946 64.1777C7.60495 64.1777 1.12793 57.7848 1.12793 49.8989C1.12793 42.013 7.60495 35.6201 15.5946 35.6201C17.3697 35.6201 19.07 35.9357 20.6413 36.5131" stroke="white" stroke-width="2" stroke-miterlimit="10" stroke-linecap="round" stroke-linejoin="round"/>
<path d="M25.239 49.8989C25.239 55.1561 20.921 59.4181 15.5946 59.4181C10.2681 59.4181 5.9502 55.1561 5.9502 49.8989C5.9502 44.6417 10.2681 40.3798 15.5946 40.3798C20.921 40.3798 25.239 44.6417 25.239 49.8989Z" stroke="white" stroke-width="2" stroke-miterlimit="10" stroke-linecap="round" stroke-linejoin="round"/>
<path d="M75.8717 49.8989C75.8717 57.7848 69.3948 64.1777 61.4052 64.1777C53.4153 64.1777 46.9385 57.7848 46.9385 49.8989C46.9385 42.013 53.4153 35.6203 61.4052 35.6203C69.3948 35.6203 75.8717 42.013 75.8717 49.8989Z" stroke="white" stroke-width="2" stroke-miterlimit="10" stroke-linecap="round" stroke-linejoin="round"/>
<path d="M63.8164 40.6797C67.976 41.7364 71.0495 45.4634 71.0495 49.8989C71.0495 55.1562 66.7317 59.4182 61.4051 59.4182C56.0788 59.4182 51.7607 55.1562 51.7607 49.8989C51.7607 45.6409 54.5934 42.0358 58.5 40.8192" stroke="white" stroke-width="2" stroke-miterlimit="10" stroke-linecap="round" stroke-linejoin="round"/>
<path d="M61.4051 49.8989L54.1718 26.1011L55.8046 25.5639C56.9429 25.1894 57.629 24.0457 57.4144 22.8805L55.7372 13.7763C55.5289 12.6448 54.5303 11.8223 53.3651 11.8223H51.7607" stroke="white" stroke-width="2" stroke-miterlimit="10" stroke-linecap="round" stroke-linejoin="round"/>
<path d="M34.8836 47.5191C34.8836 48.8334 33.8041 49.8989 32.4726 49.8989C31.1409 49.8989 30.0615 48.8334 30.0615 47.5191C30.0615 46.2049 31.1409 45.1394 32.4726 45.1394C33.8041 45.1394 34.8836 46.2049 34.8836 47.5191Z" stroke="white" stroke-width="2" stroke-miterlimit="10" stroke-linecap="round" stroke-linejoin="round"/>
<path d="M34.5068 46.1452L55.3776 32.0506" stroke="white" stroke-width="2" stroke-miterlimit="10" stroke-linecap="round" stroke-linejoin="round"/>
<path d="M54.1723 29.6708L28.8559 35.6203L15.5947 49.8989L29.7161 47.9078" stroke="white" stroke-width="2" stroke-miterlimit="10" stroke-linecap="round" stroke-linejoin="round"/>
<path d="M27.9941 32.0505L31.7831 45.1393" stroke="white" stroke-width="2" stroke-miterlimit="10" stroke-linecap="round" stroke-linejoin="round"/>
<path d="M21.6221 29.7885C21.6221 31.5744 23.2773 32.9137 25.0514 32.5634L32.6125 31.0709C33.2318 30.9486 33.6775 30.412 33.6775 29.7885C33.6775 29.0664 33.0844 28.4808 32.3526 28.4808H22.947C22.2152 28.4808 21.6221 29.0664 21.6221 29.7885Z" stroke="white" stroke-width="2" stroke-miterlimit="10" stroke-linecap="round" stroke-linejoin="round"/>
<path d="M33.6777 49.8989L36.0888 54.6584" stroke="white" stroke-width="2" stroke-miterlimit="10" stroke-linecap="round" stroke-linejoin="round"/>
<path d="M34.8838 54.6585H38.5004" stroke="white" stroke-width="2" stroke-miterlimit="10" stroke-linecap="round" stroke-linejoin="round"/>
</svg>
