<svg width="78" height="66" viewBox="0 0 78 66" fill="none" xmlns="http://www.w3.org/2000/svg">
<path d="M22.3032 2H13.016C11.947 2 10.9218 2.39067 10.1659 3.08613C9.41001 3.78159 8.98539 4.72484 8.98539 5.70837V16.8677C8.98295 17.3562 9.08538 17.8402 9.28684 18.2921C9.48831 18.744 9.78481 19.1549 10.1593 19.501C10.5339 19.8472 10.979 20.1219 11.4692 20.3093C11.9594 20.4968 12.4851 20.5933 13.016 20.5933H56.2943" stroke="#83C1D8" stroke-width="3" stroke-linecap="round" stroke-linejoin="round"/>
<path d="M44.3324 44.7915H40.6547C38.4183 44.7915 36.6055 46.4594 36.6055 48.517V60.2745C36.6055 62.332 38.4183 64 40.6547 64H44.3324C46.5687 64 48.3816 62.332 48.3816 60.2745V48.517C48.3816 46.4594 46.5687 44.7915 44.3324 44.7915Z" stroke="#83C1D8" stroke-width="3" stroke-linecap="round" stroke-linejoin="round"/>
<path d="M7.55458 11.2969H2.1123V21.9094C2.15921 22.9644 2.55906 23.9804 3.25722 24.8185C3.95538 25.6566 4.91774 26.2759 6.01288 26.5918L42.493 35.6663V43.4249" stroke="#83C1D8" stroke-width="3" stroke-linecap="round" stroke-linejoin="round"/>
<path d="M63.1658 20.5933H72.0628C73.1368 20.5933 74.1667 20.2007 74.9261 19.5021C75.6855 18.8034 76.112 17.8558 76.112 16.8677V5.70837C76.1071 4.72327 75.6784 3.78006 74.9195 3.08509C74.1607 2.39012 73.1335 1.99999 72.0628 2H30.2148" stroke="#83C1D8" stroke-width="3" stroke-linecap="round" stroke-linejoin="round"/>
</svg>
