<svg width="82" height="65" viewBox="0 0 82 65" fill="none" xmlns="http://www.w3.org/2000/svg">
<path d="M78.1846 23.3679C76.0005 19.5645 72.8146 16.203 68.9717 13.6467C68.3438 13.2292 67.4566 13.3464 66.9902 13.9086C66.5238 14.471 66.6549 15.2655 67.2827 15.6832C70.7799 18.0094 73.6786 21.068 75.6656 24.528C77.7477 28.1537 78.8034 32.0746 78.8034 36.1816C78.8034 50.2515 66.0222 61.6983 50.3123 61.6983H31.3235C15.6135 61.6983 2.83238 50.2515 2.83238 36.1816C2.83238 22.1117 15.6135 10.6649 31.3235 10.6649H32.8463V13.7971H31.3236C17.5422 13.7971 6.32981 23.8387 6.32981 36.1815C6.32981 42.583 9.41077 48.6948 14.7828 52.95C15.3686 53.4141 16.2636 53.3648 16.7819 52.8402C17.3001 52.3154 17.2451 51.5139 16.6593 51.0498C11.8949 47.276 9.16235 41.8566 9.16235 36.1816C9.16235 25.2376 19.1038 16.3341 31.3236 16.3341H32.8463V23.2019C32.8463 23.9023 33.4804 24.4702 34.2625 24.4702C35.0446 24.4702 35.6787 23.9023 35.6787 23.2019V22.1963H49.2529V26.5227C49.1727 26.5576 49.0932 26.5926 49.0144 26.6273C47.9746 27.0853 47.0768 27.4807 45.1729 27.4807C43.2693 27.4807 42.3716 27.0853 41.3322 26.6273C40.147 26.1053 38.8035 25.5135 36.2414 25.5135C33.679 25.5135 32.3356 26.1053 31.1503 26.6273C30.1107 27.0853 29.2129 27.4807 27.3093 27.4807C25.4058 27.4807 24.5082 27.0853 23.4687 26.6273C22.2836 26.1053 20.9402 25.5135 18.378 25.5135C17.5959 25.5135 16.9618 26.0814 16.9618 26.7818C16.9618 27.4823 17.5959 28.0502 18.378 28.0502C20.2816 28.0502 21.1793 28.4456 22.2187 28.9036C23.4038 29.4256 24.7472 30.0174 27.3093 30.0174C29.8717 30.0174 31.215 29.4256 32.4004 28.9036C33.4399 28.4456 34.3378 28.0502 36.2414 28.0502C38.145 28.0502 39.0427 28.4456 40.0821 28.9036C41.2673 29.4256 42.6108 30.0174 45.1729 30.0174C47.7355 30.0174 49.079 29.4256 50.2643 28.9037C51.304 28.4457 52.2019 28.0503 54.1058 28.0503C56.0097 28.0503 56.9074 28.4457 57.9473 28.9037C59.1326 29.4258 60.4761 30.0174 63.0387 30.0174C63.8208 30.0174 64.4549 29.4495 64.4549 28.749C64.4549 28.0486 63.8208 27.4807 63.0387 27.4807C61.1348 27.4807 60.2371 27.0853 59.1972 26.6273C58.0119 26.1053 56.6684 25.5136 54.1058 25.5136C53.3299 25.5136 52.6671 25.5685 52.0853 25.6586V16.3977C63.4791 17.2096 72.4734 25.7724 72.4734 36.1818C72.4734 47.1258 62.532 56.0295 50.3123 56.0295H31.3235C27.5191 56.0295 23.7643 55.1477 20.4646 53.4792C19.7833 53.1345 18.9194 53.35 18.5352 53.9602C18.1506 54.5702 18.3909 55.3439 19.072 55.6882C22.7957 57.571 27.0322 58.5661 31.3235 58.5661H50.3123C64.0938 58.5661 75.3059 48.5245 75.3059 36.1816C75.3059 24.3728 65.0424 14.6716 52.0855 13.8542V10.7142C56.2196 10.9452 60.2683 11.9807 63.8919 13.7435C64.5796 14.0781 65.439 13.8499 65.8122 13.2345C66.1855 12.6188 65.931 11.8489 65.2438 11.5146C61.2068 9.55066 56.691 8.40926 52.0853 8.17507V5.3018C52.0853 2.67343 49.6976 0.535156 46.7627 0.535156C43.828 0.535156 41.4404 2.67343 41.4404 5.3018C41.4404 6.00223 42.0745 6.57015 42.8566 6.57015C43.6387 6.57015 44.2728 6.00223 44.2728 5.3018C44.2728 4.07216 45.3897 3.07185 46.7627 3.07185C48.1357 3.07185 49.2528 4.07216 49.2528 5.3018V8.12823H35.6786V5.3018C35.6786 2.67343 33.2909 0.535156 30.356 0.535156C28.9348 0.535156 27.5985 1.03124 26.5929 1.93174C25.5874 2.83223 25.0335 4.02932 25.0335 5.3018C25.0335 6.00223 25.6676 6.57015 26.4497 6.57015C27.2318 6.57015 27.8659 6.00223 27.8659 5.3018C27.8659 4.70676 28.1252 4.1467 28.5955 3.7253C29.066 3.3039 29.6912 3.07185 30.3558 3.07185C31.7288 3.07185 32.8459 4.07216 32.8459 5.3018V8.12823H31.323C14.0517 8.12823 0 20.713 0 36.1818C0 51.6505 14.0517 64.2351 31.3235 64.2351H50.3123C67.5842 64.2353 81.6359 51.6505 81.6359 36.1818C81.6359 31.6672 80.4747 27.356 78.1846 23.3679ZM35.6789 10.6649H49.2531V13.7971H35.6789V10.6649ZM35.6789 16.3341H49.2531V19.6596H35.6789V16.3341Z" fill="white"/>
<path d="M62.8159 44.6161C60.9119 44.6161 60.0142 44.2207 58.9743 43.7628C57.789 43.2407 56.4455 42.6489 53.8829 42.6489C51.3202 42.6489 49.9769 43.2407 48.7915 43.7628C48.0897 44.0719 47.8004 44.832 48.1458 45.4606C48.491 46.0894 49.3402 46.3483 50.0416 46.039C51.0813 45.581 51.9792 45.1856 53.8831 45.1856C55.787 45.1856 56.6847 45.581 57.7246 46.039C58.9099 46.5611 60.2534 47.1528 62.816 47.1528C63.5981 47.1528 64.2322 46.5849 64.2322 45.8845C64.2322 45.184 63.5979 44.6161 62.8159 44.6161Z" fill="white"/>
<path d="M45.2111 44.6161C43.3075 44.6161 42.4098 44.2207 41.3704 43.7628C40.1852 43.2407 38.8417 42.6489 36.2796 42.6489C33.7172 42.6489 32.3739 43.2407 31.1885 43.7628C30.149 44.2207 29.2511 44.6161 27.3475 44.6161C25.4441 44.6161 24.5464 44.2207 23.507 43.7628C22.3218 43.2407 20.9785 42.6489 18.4162 42.6489C17.6341 42.6489 17 43.2168 17 43.9173C17 44.6177 17.6341 45.1856 18.4162 45.1856C20.3198 45.1856 21.2175 45.581 22.2569 46.039C23.4421 46.5611 24.7854 47.1528 27.3475 47.1528C29.91 47.1528 31.2533 46.5611 32.4386 46.039C33.4782 45.581 34.376 45.1856 36.2796 45.1856C38.1832 45.1856 39.0809 45.581 40.1203 46.039C41.3055 46.5611 42.649 47.1528 45.2111 47.1528C45.9932 47.1528 46.6273 46.5849 46.6273 45.8845C46.6273 45.184 45.9932 44.6161 45.2111 44.6161Z" fill="white"/>
<path d="M62.7687 36.1935C60.8647 36.1935 59.967 35.7981 58.9271 35.3402C57.7418 34.8181 56.3983 34.2265 53.8357 34.2265C51.2731 34.2265 49.9297 34.8182 48.7443 35.3402C47.7046 35.7981 46.8068 36.1935 44.9028 36.1935C42.9992 36.1935 42.1015 35.7981 41.0621 35.3402C39.877 34.8181 38.5335 34.2263 35.9714 34.2263C33.4089 34.2263 32.0654 34.8181 30.8803 35.3402L30.7923 35.3789C30.0902 35.6876 29.8005 36.4477 30.1454 37.0765C30.4903 37.7052 31.3384 37.9648 32.0409 37.6558L32.1303 37.6164C33.1699 37.1584 34.0677 36.763 35.9714 36.763C37.875 36.763 38.7726 37.1584 39.8121 37.6164C40.9972 38.1385 42.3407 38.7302 44.9028 38.7302C47.4654 38.7302 48.8089 38.1385 49.9942 37.6165C51.034 37.1586 51.9318 36.7631 53.8357 36.7631C55.7397 36.7631 56.6374 37.1586 57.6773 37.6165C58.8626 38.1386 60.2061 38.7302 62.7687 38.7302C63.5507 38.7302 64.1848 38.1623 64.1848 37.4619C64.1848 36.7614 63.5507 36.1935 62.7687 36.1935Z" fill="white"/>
<path d="M27.3475 36.1935C25.4441 36.1935 24.5464 35.7981 23.507 35.3402C22.3218 34.8181 20.9785 34.2263 18.4162 34.2263C17.6341 34.2263 17 34.7942 17 35.4947C17 36.1951 17.6341 36.763 18.4162 36.763C20.3198 36.763 21.2175 37.1584 22.2569 37.6164C23.4421 38.1385 24.7854 38.7302 27.3475 38.7302C28.1296 38.7302 28.7637 38.1623 28.7637 37.4619C28.7637 36.7614 28.1296 36.1935 27.3475 36.1935Z" fill="white"/>
</svg>
