<svg width="91" height="77" viewBox="0 0 91 77" fill="none" xmlns="http://www.w3.org/2000/svg">
<path d="M83.8993 63.0064C82.5544 63.9316 81.512 64.6603 79.239 64.6603C76.966 64.6603 75.8765 63.9316 74.5719 63.0064C73.8915 62.5306 73.172 62.1068 72.42 61.739L77.3157 40.403C77.3975 40.0448 77.345 39.671 77.1673 39.3452C76.9895 39.0194 76.6973 38.7617 76.3406 38.616L67.8202 35.1371L65.1302 14.8594H57.7329L56.7376 7.2552H51.6671V0.0249023H38.6747V7.21717H33.6041L32.6088 14.8213H25.2115L22.5215 35.0991L14.0078 38.578C13.6503 38.7227 13.3574 38.9802 13.1794 39.3063C13.0015 39.6324 12.9496 40.0068 13.0328 40.365L17.9419 61.7897C17.2603 62.1527 16.6043 62.557 15.9783 63.0001C14.6333 63.9252 13.5976 64.654 11.3179 64.654C9.03818 64.654 7.98911 63.9252 6.65758 63.0001C4.79808 61.5181 2.43529 60.7152 0 60.7378V63.9062C2.27973 63.9062 3.3288 64.6349 4.66032 65.5538C6.52853 67.0202 8.88311 67.8233 11.3146 67.8233C13.7461 67.8233 16.1006 67.0202 17.9688 65.5538C19.3138 64.6349 20.3561 63.9062 22.6359 63.9062C24.9156 63.9062 25.9983 64.6349 27.2962 65.5538C29.1644 67.0202 31.519 67.8233 33.9504 67.8233C36.3819 67.8233 38.7365 67.0202 40.6047 65.5538C41.9497 64.6349 42.992 63.9062 45.2717 63.9062C47.5515 63.9062 48.6342 64.6349 49.9321 65.5538C51.8003 67.0202 54.1548 67.8233 56.5863 67.8233C59.0178 67.8233 61.3723 67.0202 63.2405 65.5538C64.5855 64.6349 65.6279 63.9062 67.9076 63.9062C70.1873 63.9062 71.2364 64.6349 72.5679 65.5538C74.4361 67.0202 76.7907 67.8233 79.2222 67.8233C81.6537 67.8233 84.0082 67.0202 85.8764 65.5538C87.2214 64.6349 88.2638 63.9062 90.5368 63.9062V60.7378C88.1075 60.7215 85.7526 61.5264 83.8993 63.0064ZM36.5765 10.4109H42.0371V3.1933H48.3181V10.3856H53.7787L54.357 14.8213H35.9981L36.5765 10.4109ZM28.1973 18.0151H62.1579L64.2358 33.6543L45.8433 26.1389H45.7761L45.5743 26.0818C45.5071 26.0818 45.4466 26.0818 45.3793 26.0438H44.9691L44.7674 26.0818L44.5656 26.1389H44.5051L26.1126 33.6416L28.1973 18.0151ZM67.9211 60.7568C65.4858 60.7342 63.1229 61.5371 61.2634 63.0191C59.9185 63.9442 58.8828 64.673 56.6031 64.673C54.3234 64.673 53.2407 63.9442 51.9361 63.0191C50.0656 61.5573 47.7119 60.7572 45.2818 60.7572C42.8517 60.7572 40.4981 61.5573 38.6276 63.0191C37.2826 63.9442 36.247 64.673 33.9673 64.673C31.6875 64.673 30.6048 63.9442 29.3002 63.0191C27.444 61.536 25.0828 60.7329 22.6493 60.7568C22.1567 60.7577 21.6647 60.7894 21.1766 60.8519L16.6238 40.986L43.5233 30.017V54.2743H46.8857V30.0043L73.7851 40.9733L69.2324 60.8075C68.7968 60.7645 68.3591 60.7434 67.9211 60.7442V60.7568Z" fill="white"/>
<path d="M67.9208 69.0961C65.4846 69.0753 63.1217 69.8804 61.2631 71.3647C59.9182 72.2899 58.8825 73.0186 56.6028 73.0186C54.3231 73.0186 53.2404 72.2899 51.9358 71.3647C50.0675 69.8983 47.713 69.0952 45.2815 69.0952C42.85 69.0952 40.4955 69.8983 38.6273 71.3647C37.2823 72.2899 36.2467 73.0186 33.967 73.0186C31.6872 73.0186 30.6045 72.2899 29.2999 71.3647C27.4317 69.8983 25.0771 69.0952 22.6456 69.0952C20.2142 69.0952 17.8596 69.8983 15.9914 71.3647C14.6464 72.2899 13.6108 73.0186 11.3311 73.0186V76.187C13.7654 76.2092 16.1267 75.4037 17.9819 73.9184C19.3269 72.9932 20.3693 72.2645 22.649 72.2645C24.9287 72.2645 26.0114 72.9932 27.3093 73.9184C29.1775 75.3849 31.5321 76.1879 33.9636 76.1879C36.3951 76.1879 38.7496 75.3849 40.6178 73.9184C41.9628 72.9932 43.0051 72.2645 45.2849 72.2645C47.5646 72.2645 48.6473 72.9932 49.9452 73.9184C51.8134 75.3849 54.168 76.1879 56.5994 76.1879C59.0309 76.1879 61.3855 75.3849 63.2537 73.9184C64.5987 72.9932 65.641 72.2645 67.9208 72.2645C70.2005 72.2645 71.2496 72.9932 72.5811 73.9184C74.4396 75.4027 76.8025 76.2078 79.2387 76.187V73.0186C76.9589 73.0186 75.8762 72.2899 74.5716 71.3647C72.7151 69.8814 70.3547 69.0762 67.9208 69.0961Z" fill="white"/>
</svg>
