<svg width="97" height="41" viewBox="0 0 97 41" fill="none" xmlns="http://www.w3.org/2000/svg">
<path d="M29.4868 19.6494C27.67 18.6364 25.6873 17.8806 23.6096 17.409C25.7562 16.5949 27.5209 15.1462 28.605 13.3081C29.6891 11.47 30.0261 9.35517 29.559 7.32146C29.0919 5.28776 27.8494 3.45999 26.0417 2.14732C24.2339 0.834654 21.9719 0.117676 19.6383 0.117676C17.3046 0.117676 15.0426 0.834654 13.2349 2.14732C11.4272 3.45999 10.1847 5.28776 9.71757 7.32146C9.25049 9.35517 9.58749 11.47 10.6716 13.3081C11.7557 15.1462 13.5203 16.5949 15.667 17.409C13.5884 17.8783 11.6053 18.6342 9.78975 19.6494C3.02257 23.3087 0 29.1263 0 38.5062C0 38.9221 0.185766 39.321 0.516423 39.6151C0.847081 39.9093 1.29555 40.0745 1.76317 40.0745C2.23079 40.0745 2.67925 39.9093 3.00991 39.6151C3.34057 39.321 3.52634 38.9221 3.52634 38.5062C3.52634 28.1032 7.61518 24.4887 11.6201 22.323C17.0943 19.3357 22.1907 19.3357 27.6649 22.323C27.8623 22.4458 28.086 22.5314 28.322 22.5744C28.5581 22.6174 28.8016 22.6169 29.0374 22.5729C29.2733 22.5289 29.4965 22.4424 29.6933 22.3187C29.8901 22.195 30.0563 22.0367 30.1816 21.8537C30.307 21.6706 30.3888 21.4666 30.422 21.2543C30.4553 21.042 30.4392 20.8259 30.3749 20.6193C30.3105 20.4128 30.1993 20.2201 30.048 20.0533C29.8967 19.8865 29.7086 19.749 29.4952 19.6494H29.4868ZM13.6939 11.7631C13.2282 10.9462 12.9865 10.0428 12.9886 9.12691C12.987 7.96501 13.373 6.8288 14.0979 5.8622C14.8228 4.8956 15.8538 4.14209 17.0605 3.69711C18.2672 3.25213 19.5953 3.1357 20.8764 3.36256C22.1575 3.58942 23.3342 4.14936 24.2572 4.97147C25.1803 5.79359 25.8084 6.84089 26.0618 7.98073C26.3152 9.12056 26.1826 10.3016 25.6808 11.3744C25.179 12.4471 24.3305 13.3633 23.2429 14.0068C22.1553 14.6503 20.8774 14.9923 19.5711 14.9893C18.35 14.9955 17.1515 14.6963 16.1124 14.1259C15.0732 13.5555 14.2352 12.7367 13.6939 11.7631Z" fill="white"/>
<path d="M86.2097 19.6503C84.3941 18.6352 82.411 17.8792 80.3324 17.4099C82.1588 16.7219 83.7162 15.5697 84.8095 14.0977C85.9028 12.6258 86.4833 10.8995 86.4783 9.13533C86.4681 7.52147 85.9681 5.94 85.0311 4.55794C84.0942 3.17589 82.755 2.04456 81.155 1.28341C79.555 0.522251 77.7537 0.15953 75.9412 0.233554C74.1286 0.307579 72.3722 0.815598 70.8574 1.70396C69.3426 2.59233 68.1256 3.82805 67.335 5.28066C66.5443 6.73327 66.2093 8.34885 66.3654 9.95676C66.5215 11.5647 67.1629 13.1052 68.2218 14.4158C69.2807 15.7263 70.7178 16.7582 72.3814 17.4024C70.3048 17.8768 68.3225 18.6324 66.5042 19.6429C66.2908 19.7425 66.1027 19.8799 65.9514 20.0468C65.8001 20.2136 65.6889 20.4063 65.6245 20.6128C65.5602 20.8194 65.5442 21.0355 65.5774 21.2478C65.6106 21.4601 65.6925 21.664 65.8178 21.8471C65.9431 22.0302 66.1093 22.1885 66.3061 22.3122C66.5029 22.4359 66.7261 22.5224 66.962 22.5664C67.1978 22.6104 67.4413 22.6109 67.6774 22.5679C67.9135 22.5249 68.1371 22.4393 68.3345 22.3164C73.8087 19.3292 78.9135 19.3292 84.3877 22.3164C88.3842 24.4822 92.4815 28.0967 92.4815 38.4997C92.4648 38.7142 92.4979 38.9295 92.5788 39.1322C92.6596 39.3349 92.7865 39.5206 92.9514 39.6778C93.1164 39.8351 93.316 39.9604 93.5377 40.0462C93.7595 40.1319 93.9987 40.1761 94.2404 40.1761C94.4822 40.1761 94.7214 40.1319 94.9432 40.0462C95.1649 39.9604 95.3645 39.8351 95.5295 39.6778C95.6944 39.5206 95.8213 39.3349 95.9021 39.1322C95.983 38.9295 96.0161 38.7142 95.9994 38.4997C95.9742 29.1273 92.9768 23.3097 86.2097 19.6503ZM70.4839 11.7641C69.974 10.8703 69.7301 9.8752 69.7757 8.87374C69.8212 7.87229 70.1547 6.89795 70.7442 6.04378C71.3337 5.18961 72.1596 4.48415 73.143 3.99477C74.1263 3.50538 75.2343 3.24842 76.3612 3.24842C77.488 3.24842 78.596 3.50538 79.5793 3.99477C80.5627 4.48415 81.3885 5.18961 81.9781 6.04378C82.5676 6.89795 82.9011 7.87229 82.9466 8.87374C82.9922 9.8752 82.7483 10.8703 82.2384 11.7641C81.6853 12.7273 80.8438 13.536 79.8066 14.1007C78.7695 14.6654 77.5772 14.9643 76.3612 14.9643C75.1451 14.9643 73.9527 14.6654 72.9156 14.1007C71.8785 13.536 71.037 12.7273 70.4839 11.7641Z" fill="white"/>
<path d="M57.8731 19.6499C56.0563 18.6369 54.0736 17.8811 51.9959 17.4095C54.1275 16.5953 55.8779 15.1519 56.9515 13.3228C58.0252 11.4937 58.3564 9.39107 57.8891 7.36996C57.4219 5.34886 56.1848 3.5331 54.3869 2.22926C52.5889 0.925414 50.3402 0.213379 48.0204 0.213379C45.7006 0.213379 43.4519 0.925414 41.6539 2.22926C39.856 3.5331 38.6189 5.34886 38.1517 7.36996C37.6844 9.39107 38.0156 11.4937 39.0893 13.3228C40.1629 15.1519 41.9133 16.5953 44.0449 17.4095C41.9666 17.8795 39.9836 18.6354 38.1677 19.6499C31.4005 23.3093 28.3779 29.1269 28.3779 38.5067C28.3779 38.9227 28.5637 39.3216 28.8944 39.6157C29.225 39.9098 29.6735 40.075 30.1411 40.075C30.6087 40.075 31.0572 39.9098 31.3878 39.6157C31.7185 39.3216 31.9043 38.9227 31.9043 38.5067C31.9043 28.1038 35.9931 24.4892 39.998 22.3235C45.4722 19.3363 50.5686 19.3363 56.0428 22.3235C60.0477 24.4892 64.1365 28.1038 64.1365 38.5067C64.1365 38.9227 64.3223 39.3216 64.653 39.6157C64.9836 39.9098 65.4321 40.075 65.8997 40.075C66.3673 40.075 66.8158 39.9098 67.1465 39.6157C67.4771 39.3216 67.6629 38.9227 67.6629 38.5067C67.6629 29.1269 64.6403 23.3093 57.8731 19.6499ZM42.1138 11.7637C41.6481 10.9468 41.4064 10.0434 41.4086 9.12747C41.4069 7.96556 41.7929 6.82935 42.5178 5.86275C43.2427 4.89615 44.2738 4.14264 45.4804 3.69766C46.6871 3.25268 48.0152 3.13626 49.2963 3.36312C50.5774 3.58998 51.7541 4.14991 52.6772 4.97202C53.6003 5.79414 54.2283 6.84145 54.4817 7.98128C54.7351 9.12111 54.6025 10.3022 54.1007 11.3749C53.5989 12.4477 52.7505 13.3639 51.6628 14.0074C50.5752 14.6509 49.2973 14.9928 47.991 14.9899C46.7699 14.9961 45.5714 14.6969 44.5323 14.1264C43.4931 13.556 42.6551 12.7373 42.1138 11.7637Z" fill="white"/>
</svg>
