<svg width="24" height="18" viewBox="0 0 24 18" fill="none" xmlns="http://www.w3.org/2000/svg">
<path d="M22.5056 3.60832C22.3875 3.13682 22.1471 2.70482 21.8086 2.35595C21.4701 2.00707 21.0455 1.75368 20.5777 1.62136C18.8684 1.2041 12.0314 1.2041 12.0314 1.2041C12.0314 1.2041 5.19443 1.2041 3.48518 1.6611C3.01737 1.79342 2.59277 2.04681 2.25427 2.39569C1.91576 2.74456 1.67535 3.17656 1.5573 3.64806C1.24448 5.38223 1.09147 7.14144 1.10018 8.90356C1.08903 10.679 1.24205 12.4516 1.5573 14.1988C1.68744 14.6556 1.93325 15.0712 2.27096 15.4054C2.60867 15.7395 3.02688 15.9809 3.48518 16.1063C5.19443 16.5633 12.0314 16.5633 12.0314 16.5633C12.0314 16.5633 18.8684 16.5633 20.5777 16.1063C21.0455 15.974 21.4701 15.7206 21.8086 15.3717C22.1471 15.0228 22.3875 14.5908 22.5056 14.1193C22.816 12.3982 22.969 10.6524 22.9627 8.90356C22.9738 7.12817 22.8208 5.35555 22.5056 3.60832V3.60832Z" stroke="#3C3935" stroke-linecap="round" stroke-linejoin="round"/>
<path d="M9.79492 12.1526L15.509 8.90395L9.79492 5.65527V12.1526Z" stroke="#3C3935" stroke-linecap="round" stroke-linejoin="round"/>
</svg>
