<svg width="91" height="75" viewBox="0 0 91 75" fill="none" xmlns="http://www.w3.org/2000/svg">
<g clip-path="url(#clip0_503_1109)">
<path d="M25.2987 10.8908H5.41993C5.01841 10.8908 4.63324 10.73 4.34879 10.4437C4.06435 10.1573 3.90381 9.76877 3.90234 9.36307V1.53337C3.90234 1.1267 4.06223 0.736669 4.34683 0.449108C4.63144 0.161546 5.01744 0 5.41993 0H51.5592C51.9617 6.856e-08 52.3477 0.161546 52.6323 0.449108C52.9169 0.736669 53.0768 1.1267 53.0768 1.53337C53.0768 1.94004 52.9169 2.33005 52.6323 2.61761C52.3477 2.90518 51.9617 3.06674 51.5592 3.06674H6.93753V7.8297H25.2821C25.4887 7.81705 25.6957 7.84725 25.8904 7.91844C26.0851 7.98964 26.2633 8.10032 26.414 8.24369C26.5648 8.38706 26.6849 8.56008 26.767 8.7521C26.8491 8.94412 26.8915 9.15108 26.8915 9.36026C26.8915 9.56944 26.8491 9.7764 26.767 9.96842C26.6849 10.1604 26.5648 10.3335 26.414 10.4768C26.2633 10.6202 26.0851 10.7309 25.8904 10.8021C25.6957 10.8733 25.4887 10.9035 25.2821 10.8908H25.2987Z" fill="white"/>
<path d="M18.2893 75.0224H11.6797C11.2772 75.0224 10.8912 74.8608 10.6066 74.5732C10.322 74.2857 10.1621 73.8957 10.1621 73.489V9.36296C10.1621 8.95629 10.322 8.56626 10.6066 8.2787C10.8912 7.99114 11.2772 7.82959 11.6797 7.82959H18.2893C18.6918 7.82959 19.0778 7.99114 19.3624 8.2787C19.647 8.56626 19.8069 8.95629 19.8069 9.36296V73.4721C19.8091 73.6749 19.7715 73.8761 19.6962 74.0641C19.6209 74.2521 19.5095 74.4231 19.3683 74.5673C19.2272 74.7115 19.0591 74.8259 18.8739 74.9041C18.6887 74.9822 18.49 75.0224 18.2893 75.0224ZM13.1917 71.9556H16.7773V10.8907H13.1917V71.9556Z" fill="white"/>
<path d="M43.8713 75.0226H37.2617C36.8592 75.0226 36.4733 74.861 36.1886 74.5735C35.904 74.2859 35.7441 73.8959 35.7441 73.4892V35.363C35.7675 34.9731 35.9373 34.6069 36.2188 34.3392C36.5003 34.0714 36.8724 33.9224 37.259 33.9224C37.6456 33.9224 38.0176 34.0714 38.2991 34.3392C38.5806 34.6069 38.7504 34.9731 38.7738 35.363V71.939H42.3871V49.8316C42.3746 49.6228 42.4045 49.4136 42.4749 49.217C42.5454 49.0203 42.6549 48.8402 42.7968 48.6879C42.9387 48.5356 43.1099 48.4142 43.3 48.3313C43.49 48.2483 43.6949 48.2055 43.9019 48.2055C44.1089 48.2055 44.3138 48.2483 44.5038 48.3313C44.6939 48.4142 44.8651 48.5356 45.007 48.6879C45.1489 48.8402 45.2584 49.0203 45.3289 49.217C45.3993 49.4136 45.4292 49.6228 45.4167 49.8316V73.4724C45.419 73.6775 45.3805 73.8811 45.3035 74.0709C45.2265 74.2608 45.1125 74.4331 44.9684 74.5776C44.8243 74.7222 44.653 74.8361 44.4645 74.9125C44.2761 74.9889 44.0744 75.0264 43.8713 75.0226Z" fill="white"/>
<path d="M37.2618 65.7887H18.2891C17.9032 65.765 17.5408 65.5935 17.2758 65.3091C17.0108 65.0246 16.8633 64.6487 16.8633 64.2581C16.8633 63.8675 17.0108 63.4916 17.2758 63.2072C17.5408 62.9227 17.9032 62.7512 18.2891 62.7275H37.2618C37.6477 62.7512 38.0101 62.9227 38.275 63.2072C38.54 63.4916 38.6876 63.8675 38.6876 64.2581C38.6876 64.6487 38.54 65.0246 38.275 65.3091C38.0101 65.5935 37.6477 65.765 37.2618 65.7887Z" fill="white"/>
<path d="M37.2618 54.8023H18.2891C17.8866 54.8023 17.5006 54.6408 17.216 54.3532C16.9314 54.0656 16.7715 53.6756 16.7715 53.2689C16.7715 52.8623 16.9314 52.4723 17.216 52.1847C17.5006 51.8971 17.8866 51.7356 18.2891 51.7356H37.2618C37.6643 51.7356 38.0503 51.8971 38.3349 52.1847C38.6195 52.4723 38.7794 52.8623 38.7794 53.2689C38.7794 53.6756 38.6195 54.0656 38.3349 54.3532C38.0503 54.6408 37.6643 54.8023 37.2618 54.8023Z" fill="white"/>
<path d="M37.2618 43.8441H18.2891C17.9032 43.8204 17.5408 43.6489 17.2758 43.3645C17.0108 43.08 16.8633 42.7041 16.8633 42.3135C16.8633 41.9229 17.0108 41.547 17.2758 41.2626C17.5408 40.9781 17.9032 40.8066 18.2891 40.783H37.2618C37.6477 40.8066 38.0101 40.9781 38.275 41.2626C38.54 41.547 38.6876 41.9229 38.6876 42.3135C38.6876 42.7041 38.54 43.08 38.275 43.3645C38.0101 43.6489 37.6477 43.8204 37.2618 43.8441Z" fill="white"/>
<path d="M35.3606 32.8972H18.2891C17.9032 32.8735 17.5408 32.702 17.2758 32.4176C17.0108 32.1331 16.8633 31.7572 16.8633 31.3666C16.8633 30.976 17.0108 30.6001 17.2758 30.3157C17.5408 30.0312 17.9032 29.8597 18.2891 29.8361H35.3606C35.5672 29.8234 35.7743 29.8536 35.9689 29.9248C36.1636 29.996 36.3418 30.1067 36.4925 30.2501C36.6433 30.3934 36.7634 30.5664 36.8455 30.7585C36.9277 30.9505 36.97 31.1574 36.97 31.3666C36.97 31.5758 36.9277 31.7828 36.8455 31.9748C36.7634 32.1668 36.6433 32.3398 36.4925 32.4832C36.3418 32.6266 36.1636 32.7372 35.9689 32.8084C35.7743 32.8796 35.5672 32.9098 35.3606 32.8972Z" fill="white"/>
<path d="M30.5354 21.8995H18.3057C17.9032 21.8995 17.5172 21.7379 17.2326 21.4504C16.948 21.1628 16.7881 20.7728 16.7881 20.3661C16.7881 19.9595 16.948 19.5694 17.2326 19.2819C17.5172 18.9943 17.9032 18.8328 18.3057 18.8328H30.5354C30.9379 18.8328 31.3239 18.9943 31.6085 19.2819C31.8931 19.5694 32.053 19.9595 32.053 20.3661C32.053 20.7728 31.8931 21.1628 31.6085 21.4504C31.3239 21.7379 30.9379 21.8995 30.5354 21.8995Z" fill="white"/>
<path d="M55.0722 75.0225H1.51173C1.10924 75.0225 0.723233 74.8609 0.438629 74.5734C0.154025 74.2858 -0.00585938 73.8958 -0.00585938 73.4891C-0.00585938 73.0824 0.154025 72.6924 0.438629 72.4049C0.723233 72.1173 1.10924 71.9557 1.51173 71.9557H52.6874L20.3844 2.19614C20.2743 1.96412 20.2252 1.7074 20.2418 1.45066C20.2583 1.19393 20.34 0.945821 20.4789 0.730181C20.6146 0.511491 20.8032 0.331278 21.0269 0.206494C21.2505 0.0817097 21.5019 0.0164436 21.7574 0.0168476H51.5645C51.8384 0.0174555 52.1071 0.0929624 52.342 0.235359C52.5769 0.377756 52.7692 0.581734 52.8987 0.825656L90.8163 72.0456C90.9108 72.223 90.9698 72.4175 90.99 72.6179C91.0101 72.8184 90.991 73.0208 90.9337 73.2138C90.8764 73.4068 90.7821 73.5865 90.656 73.7426C90.53 73.8988 90.3748 74.0283 90.1992 74.1238C90.0237 74.2193 89.8312 74.279 89.6328 74.2993C89.4344 74.3197 89.234 74.3004 89.043 74.2425C88.852 74.1846 88.6742 74.0892 88.5197 73.9619C88.3651 73.8346 88.2369 73.6777 88.1424 73.5003L50.6584 3.06674H24.1367L56.4453 72.8207C56.5523 73.0545 56.5995 73.3116 56.5826 73.5686C56.5657 73.8256 56.4853 74.0742 56.3486 74.2916C56.212 74.509 56.0235 74.6883 55.8005 74.8131C55.5775 74.9378 55.3271 75.004 55.0722 75.0056V75.0225Z" fill="white"/>
<path d="M37.0284 16.6198C38.984 16.6198 40.5694 15.0179 40.5694 13.042C40.5694 11.066 38.984 9.46411 37.0284 9.46411C35.0727 9.46411 33.4873 11.066 33.4873 13.042C33.4873 15.0179 35.0727 16.6198 37.0284 16.6198Z" stroke="white" stroke-width="3" stroke-linecap="round" stroke-linejoin="round"/>
<path d="M51.0703 25.4775C53.026 25.4775 54.6114 23.8756 54.6114 21.8996C54.6114 19.9236 53.026 18.3218 51.0703 18.3218C49.1147 18.3218 47.5293 19.9236 47.5293 21.8996C47.5293 23.8756 49.1147 25.4775 51.0703 25.4775Z" stroke="white" stroke-width="3" stroke-linecap="round" stroke-linejoin="round"/>
<path d="M48.7022 40.0585C50.6579 40.0585 52.2432 38.4567 52.2432 36.4807C52.2432 34.5047 50.6579 32.9028 48.7022 32.9028C46.7465 32.9028 45.1611 34.5047 45.1611 36.4807C45.1611 38.4567 46.7465 40.0585 48.7022 40.0585Z" stroke="white" stroke-width="3" stroke-linecap="round" stroke-linejoin="round"/>
<path d="M62.7442 48.9159C64.6998 48.9159 66.2852 47.3141 66.2852 45.3381C66.2852 43.3621 64.6998 41.7603 62.7442 41.7603C60.7885 41.7603 59.2031 43.3621 59.2031 45.3381C59.2031 47.3141 60.7885 48.9159 62.7442 48.9159Z" stroke="white" stroke-width="3" stroke-linecap="round" stroke-linejoin="round"/>
<path d="M60.5645 63.4072C62.5202 63.4072 64.1055 61.8053 64.1055 59.8293C64.1055 57.8533 62.5202 56.2515 60.5645 56.2515C58.6088 56.2515 57.0234 57.8533 57.0234 59.8293C57.0234 61.8053 58.6088 63.4072 60.5645 63.4072Z" stroke="white" stroke-width="3" stroke-linecap="round" stroke-linejoin="round"/>
<path d="M74.6065 72.2646C76.5622 72.2646 78.1475 70.6627 78.1475 68.6867C78.1475 66.7107 76.5622 65.1089 74.6065 65.1089C72.6508 65.1089 71.0654 66.7107 71.0654 68.6867C71.0654 70.6627 72.6508 72.2646 74.6065 72.2646Z" stroke="white" stroke-width="3" stroke-linecap="round" stroke-linejoin="round"/>
</g>
<defs>
<clipPath id="clip0_503_1109">
<rect width="91" height="75" fill="white"/>
</clipPath>
</defs>
</svg>
