<svg width="70" height="51" viewBox="0 0 70 51" fill="none" xmlns="http://www.w3.org/2000/svg">
<g clip-path="url(#clip0_503_851)">
<mask id="mask0_503_851" style="mask-type:luminance" maskUnits="userSpaceOnUse" x="0" y="0" width="70" height="51">
<path d="M70 0H0V50.537H70V0Z" fill="white"/>
</mask>
<g mask="url(#mask0_503_851)">
<path d="M21.781 41.7149H21.6974C21.5129 41.7051 21.3324 41.6616 21.1663 41.5868C21.0002 41.512 20.8518 41.4074 20.7299 41.2792C20.6079 41.151 20.5148 41.0016 20.4559 40.8399C20.397 40.6781 20.3734 40.5071 20.3866 40.3369L20.7771 35.0308L12.9265 6.51678C12.7278 5.76498 12.2894 5.08558 11.6678 4.56663C11.0463 4.04767 10.2703 3.71306 9.44044 3.60615L1.18548 2.57583C0.819594 2.53094 0.487861 2.3539 0.26307 2.08351C0.0382792 1.81313 -0.0612947 1.47146 -0.0137887 1.13339C0.00852171 0.963679 0.0672006 0.799772 0.158812 0.651219C0.250423 0.502665 0.373176 0.372442 0.519843 0.268148C0.666511 0.163854 0.834216 0.0875632 1.01313 0.043745C1.19205 -7.32119e-05 1.37857 -0.0105401 1.56192 0.0129311L9.81696 1.03036C11.204 1.20565 12.5017 1.76253 13.5413 2.62852C14.5809 3.4945 15.3142 4.62949 15.6456 5.88573L23.5241 34.58C23.5378 34.7128 23.5378 34.8465 23.5241 34.9793L23.1197 40.5043C23.0984 40.8323 22.9421 41.1404 22.6828 41.3655C22.4236 41.5905 22.0811 41.7155 21.7253 41.7149" fill="white"/>
<path d="M58.761 46.1195H26.2431C25.8732 46.1195 25.5186 45.9838 25.2571 45.7423C24.9956 45.5008 24.8486 45.1732 24.8486 44.8316C24.8486 44.49 24.9956 44.1625 25.2571 43.9209C25.5186 43.6794 25.8732 43.5437 26.2431 43.5437H58.761C59.1308 43.5437 59.4855 43.6794 59.747 43.9209C60.0085 44.1625 60.1554 44.49 60.1554 44.8316C60.1554 45.1732 60.0085 45.5008 59.747 45.7423C59.4855 45.9838 59.1308 46.1195 58.761 46.1195Z" fill="white"/>
<path d="M61.4804 36.1898H22.1856C21.8671 36.1984 21.555 36.106 21.3012 35.9279C21.0475 35.7498 20.8675 35.4968 20.7912 35.211L13.6518 9.22133C13.5955 9.01769 13.5939 8.80443 13.6474 8.60014C13.7009 8.39586 13.8077 8.20675 13.9585 8.04934C14.1082 7.88874 14.2986 7.76475 14.5126 7.68836C14.7267 7.61198 14.9578 7.58556 15.1856 7.61146L52.4585 11.6039C52.6421 11.6231 52.8199 11.6757 52.9813 11.7588C53.1427 11.8419 53.2847 11.9538 53.3988 12.088C53.513 12.2223 53.5971 12.3761 53.6463 12.5406C53.6956 12.7051 53.7089 12.8771 53.6856 13.0464C53.6649 13.216 53.6079 13.3801 53.5179 13.5292C53.4279 13.6783 53.3068 13.8094 53.1615 13.9148C53.0162 14.0203 52.8495 14.098 52.6714 14.1435C52.4933 14.189 52.3072 14.2013 52.1238 14.1797L16.8729 10.4062L23.2454 33.5883H61.4385C62.013 33.5909 62.5709 33.4103 63.018 33.0772C63.4651 32.744 63.774 32.2786 63.8927 31.7595L67.0999 18.4555C67.1764 18.1368 67.1797 17.8068 67.1093 17.4869C67.039 17.167 66.8966 16.8643 66.6916 16.5984C66.4865 16.3325 66.2232 16.1093 65.9188 15.9434C65.6145 15.7775 65.2757 15.6724 64.9246 15.635L57.6597 14.7464C57.4766 14.7244 57.2999 14.6693 57.1399 14.5843C56.9798 14.4992 56.8394 14.3859 56.7268 14.2508C56.6141 14.1157 56.5314 13.9614 56.4833 13.7967C56.4353 13.632 56.4228 13.4602 56.4466 13.2911C56.4704 13.122 56.53 12.9588 56.6221 12.811C56.7141 12.6631 56.8368 12.5335 56.9831 12.4294C57.1294 12.3254 57.2966 12.249 57.4749 12.2046C57.6532 12.1602 57.8392 12.1486 58.0223 12.1706L65.2732 13.0593C66.0098 13.142 66.7195 13.366 67.3568 13.7169C67.9942 14.0677 68.5452 14.5377 68.9745 15.0966C69.4038 15.6556 69.7019 16.2912 69.8498 16.9628C69.9976 17.6344 69.9919 18.327 69.833 18.9964L66.6258 32.3133C66.3729 33.4094 65.7192 34.3918 64.7746 35.0954C63.83 35.799 62.652 36.1809 61.4385 36.177" fill="white"/>
<path d="M21.4605 41.7149C20.793 41.7149 20.1406 41.8977 19.5857 42.2402C19.0308 42.5826 18.5982 43.0694 18.3428 43.6389C18.0874 44.2084 18.0206 44.8351 18.1508 45.4396C18.281 46.0442 18.6024 46.5996 19.0744 47.0354C19.5463 47.4713 20.1476 47.7682 20.8021 47.8884C21.4567 48.0087 22.1352 47.947 22.7518 47.7111C23.3684 47.4752 23.8954 47.0757 24.2662 46.5631C24.637 46.0506 24.8349 45.448 24.8349 44.8316C24.8349 44.005 24.4794 43.2123 23.8466 42.6278C23.2137 42.0433 22.3554 41.7149 21.4605 41.7149ZM21.4605 50.537C20.2387 50.537 19.0444 50.2024 18.0285 49.5754C17.0127 48.9485 16.221 48.0575 15.7534 47.015C15.2859 45.9724 15.1636 44.8253 15.4019 43.7185C15.6403 42.6118 16.2285 41.5952 17.0924 40.7973C17.9563 39.9994 19.057 39.456 20.2553 39.2359C21.4536 39.0157 22.6957 39.1287 23.8244 39.5605C24.9532 39.9923 25.9179 40.7236 26.5967 41.6619C27.2755 42.6001 27.6377 43.7032 27.6377 44.8316C27.6377 46.3448 26.987 47.796 25.8285 48.8659C24.67 49.9359 23.0988 50.537 21.4605 50.537Z" fill="white"/>
<path d="M63.5435 41.7149C62.8761 41.7149 62.2236 41.8977 61.6687 42.2402C61.1138 42.5826 60.6813 43.0694 60.4258 43.6389C60.1704 44.2084 60.1036 44.8351 60.2338 45.4396C60.364 46.0442 60.6854 46.5996 61.1574 47.0354C61.6293 47.4713 62.2306 47.7682 62.8852 47.8884C63.5397 48.0087 64.2182 47.947 64.8348 47.7111C65.4514 47.4752 65.9785 47.0757 66.3492 46.5631C66.72 46.0506 66.9179 45.448 66.9179 44.8316C66.9179 44.005 66.5624 43.2123 65.9296 42.6278C65.2967 42.0433 64.4384 41.7149 63.5435 41.7149ZM63.5435 50.537C62.3217 50.537 61.1274 50.2024 60.1115 49.5754C59.0957 48.9485 58.304 48.0575 57.8364 47.015C57.3689 45.9724 57.2466 44.8253 57.4849 43.7185C57.7233 42.6118 58.3116 41.5952 59.1755 40.7973C60.0394 39.9994 61.1401 39.456 62.3383 39.2359C63.5366 39.0157 64.7787 39.1287 65.9075 39.5605C67.0362 39.9923 68.0009 40.7236 68.6797 41.6619C69.3585 42.6001 69.7207 43.7032 69.7207 44.8316C69.7171 46.3437 69.0651 47.7929 67.9074 48.8622C66.7498 49.9314 65.1807 50.5336 63.5435 50.537Z" fill="white"/>
</g>
</g>
<defs>
<clipPath id="clip0_503_851">
<rect width="70" height="50.537" fill="white"/>
</clipPath>
</defs>
</svg>
