<svg width="58" height="69" viewBox="0 0 58 69" fill="none" xmlns="http://www.w3.org/2000/svg">
<path d="M56.7732 31.8926C53.9401 31.7739 51.9611 32.36 50.7416 33.6806C48.393 36.2252 49.5509 40.747 51.0126 46.4744C51.805 49.568 52.7001 53.0734 53.123 56.6419C53.4392 59.3498 52.8151 61.4641 51.2589 62.9071C50.5531 63.5481 49.7165 64.0595 48.7954 64.4131C49.0351 63.8906 49.174 63.3348 49.206 62.7699C49.6166 53.526 45.3793 45.9254 41.7332 41.181C37.6068 35.8061 32.7413 32.0744 30.479 30.8763C27.3585 29.2219 21.331 29.1477 18.5965 33.3282C14.1949 40.0645 13.4846 51.5266 13.0124 59.1087C12.8605 61.5903 12.7291 63.7306 12.5033 65.1216C12.4608 65.2883 12.3558 65.4366 12.2062 65.5414C12.0565 65.6461 11.8714 65.701 11.6821 65.6966H2.64914C2.83029 64.6978 3.31115 63.7629 4.03942 62.9938C4.7677 62.2247 5.71548 61.6507 6.77968 61.3343L7.46537 61.1637L7.67067 60.5479C7.75689 60.292 9.72361 54.2085 6.53332 46.1887C6.32392 45.5656 1.79511 31.7962 6.49637 23.5131C7.34577 23.8884 8.26168 24.1257 9.20216 24.2141C13.5914 24.6667 15.2707 22.3594 15.8784 20.9647C17.804 16.5134 14.5234 8.30442 9.48137 4.8287C11.6903 2.8998 17.2826 1.86116 20.4934 2.49176C21.5199 2.68836 21.951 3.00366 21.9921 3.16688C22.2185 4.21023 22.7695 5.17366 23.5803 5.94429C24.3911 6.71492 25.4282 7.26081 26.5701 7.51803L26.6933 7.54029H32.9671C33.2768 7.53229 33.5774 7.63558 33.8029 7.8275C34.0284 8.01943 34.1605 8.28432 34.1702 8.56409V9.26517C34.1702 11.9063 27.843 17.578 23.7576 17.8636C23.5126 17.8789 23.2738 17.9406 23.057 18.0448C22.8401 18.149 22.65 18.2932 22.4989 18.4682C22.3478 18.6431 22.2393 18.8449 22.1802 19.0603C22.1212 19.2757 22.113 19.4999 22.1563 19.7183C22.3616 20.7829 24.1271 26.5733 27.5391 28.3761C27.7369 28.4776 27.9604 28.5313 28.1879 28.5319C28.4699 28.5316 28.744 28.4475 28.9679 28.2926C29.1919 28.1377 29.3531 27.9205 29.4269 27.6746C29.5007 27.4286 29.4829 27.1676 29.3762 26.9317C29.2695 26.6958 29.0799 26.4982 28.8366 26.3693C26.9807 25.39 25.4492 21.8735 24.8867 20.0633C27.1409 19.6293 29.8138 18.2086 32.2527 16.161C35.0653 13.7795 36.7446 11.2052 36.7446 9.27259V8.56038C36.7305 7.66604 36.3254 6.81304 35.6177 6.18757C34.91 5.5621 33.9571 5.21495 32.9671 5.2219H26.9479C26.3211 5.03271 25.7619 4.69511 25.3286 4.24429C24.8953 3.79347 24.6038 3.24592 24.4843 2.65869C24.2708 1.80923 23.4948 0.703821 21.0107 0.229015C16.7037 -0.594476 9.48958 0.844782 6.98497 3.87167C4.48037 6.89856 0.961614 15.471 3.35536 20.4862C3.62452 21.0566 3.98564 21.5878 4.427 22.0627C4.42778 22.0713 4.42778 22.08 4.427 22.0886C-1.18988 31.3362 3.86449 46.2778 4.08621 46.9084V46.9566C6.45942 52.9251 5.69162 57.7733 5.31798 59.3461C3.86594 59.8821 2.60398 60.7669 1.66887 61.9046C0.733758 63.0424 0.161167 64.3897 0.0131501 65.8005C-0.0206579 66.077 0.010903 66.3569 0.105748 66.6217C0.200594 66.8864 0.356561 67.1299 0.56334 67.3362C0.780489 67.5537 1.04589 67.7276 1.34228 67.8465C1.63867 67.9654 1.95943 68.0266 2.28371 68.0261H11.6575C12.4656 68.033 13.2498 67.7784 13.8681 67.3082C14.4864 66.8381 14.898 66.1835 15.0284 65.4629C15.2707 63.9791 15.4062 61.7831 15.5622 59.2459C16.018 51.8864 16.7036 40.7656 20.789 34.5189C22.7229 31.5514 27.264 31.8852 29.1569 32.8868C30.5857 33.6286 35.25 36.8484 39.6023 42.5313C43.0225 46.9826 47.0134 54.0972 46.6152 62.6957C46.5552 63.4437 46.1772 64.1418 45.5603 64.6438C44.9435 65.1458 44.1356 65.4127 43.3058 65.3887H43.043H42.6899C42.5945 65.3775 42.4979 65.3775 42.4025 65.3887H22.5135C22.9241 63.6304 23.7781 61.2787 28.3603 61.2787C28.5799 61.279 28.7962 61.2297 28.9894 61.1353C29.1825 61.0409 29.3466 60.9044 29.4665 60.7382C29.5864 60.572 29.6585 60.3813 29.6761 60.1835C29.6938 59.9858 29.6564 59.7871 29.5674 59.6057C29.5182 59.513 29.4566 59.4054 29.3416 59.2162C26.3443 54.2753 26.488 51.0555 27.1368 49.2008C27.8266 47.2348 29.4853 45.662 32.0638 44.5269C32.3704 44.3921 32.6051 44.1529 32.7164 43.8617C32.8276 43.5706 32.8063 43.2515 32.6571 42.9745C32.5833 42.8374 32.4802 42.7148 32.3539 42.6136C32.2276 42.5125 32.0804 42.4348 31.9209 42.385C31.5986 42.2845 31.2454 42.3037 30.9388 42.4385C27.7034 43.8629 25.6011 45.9031 24.6896 48.496C23.6303 51.5043 24.201 55.0691 26.3772 59.1012C21.1709 59.8802 20.2799 63.7158 19.9186 65.2626C19.8898 65.385 19.8652 65.4963 19.8406 65.5964C19.7751 65.848 19.7739 66.1097 19.8373 66.3616C19.9006 66.6136 20.0267 66.8492 20.206 67.0505C20.3898 67.2601 20.6239 67.4291 20.8906 67.5447C21.1574 67.6604 21.4498 67.7197 21.7457 67.7182H42.9199H43.3304C45.2766 67.7182 50.0272 67.4029 53.0902 64.5578C55.2088 62.5918 56.0793 59.8543 55.6728 56.423C55.2376 52.7136 54.322 49.134 53.5172 45.9773C52.2854 41.0809 51.185 36.8521 52.696 35.194C53.3653 34.4521 54.6545 34.1554 56.6336 34.2407C56.8023 34.2478 56.971 34.2247 57.1299 34.1729C57.2888 34.1211 57.4349 34.0415 57.5597 33.9387C57.6846 33.8359 57.7858 33.7118 57.8577 33.5737C57.9295 33.4355 57.9704 33.2859 57.9783 33.1334C57.9861 32.981 57.9606 32.8286 57.9032 32.685C57.8459 32.5415 57.7577 32.4095 57.6439 32.2967C57.5301 32.1839 57.3928 32.0924 57.2399 32.0276C57.087 31.9627 56.9214 31.9257 56.7527 31.9186L56.7732 31.8926ZM8.01967 6.76501C12.0804 9.66949 14.9586 16.6432 13.4559 20.1189C12.84 21.5359 11.5384 22.1183 9.46494 21.9069C7.59676 21.714 6.36909 20.9461 5.70393 19.5588C4.07389 16.1499 6.15148 10.0367 8.01967 6.76501Z" fill="white"/>
</svg>
