<svg width="78" height="76" viewBox="0 0 78 76" fill="none" xmlns="http://www.w3.org/2000/svg">
<g clip-path="url(#clip0_503_920)">
<path d="M16.027 19.4282C15.3078 19.4282 14.7246 20.0037 14.7246 20.7137V64.714C14.7246 65.4238 15.3077 65.9995 16.027 65.9995C16.7463 65.9995 17.3294 65.424 17.3294 64.714V20.7137C17.3294 20.0037 16.7463 19.4282 16.027 19.4282Z" fill="#83C1D8"/>
<path d="M16.027 10.0005C15.3078 10.0005 14.7246 10.576 14.7246 11.286V16.4293C14.7246 17.1391 15.3077 17.7148 16.027 17.7148C16.7463 17.7148 17.3294 17.1393 17.3294 16.4293V11.286C17.3294 10.576 16.7463 10.0005 16.027 10.0005Z" fill="#83C1D8"/>
<path d="M38.6344 51.3047C37.9152 51.3047 37.332 51.8802 37.332 52.5902V64.7141C37.332 65.4239 37.9151 65.9996 38.6344 65.9996C39.3539 65.9996 39.9368 65.4241 39.9368 64.7141V52.5902C39.9366 51.8802 39.3537 51.3047 38.6344 51.3047Z" fill="#83C1D8"/>
<path d="M38.6344 10C37.9152 10 37.332 10.5755 37.332 11.2855V48.3052C37.332 49.015 37.9151 49.5907 38.6344 49.5907C39.3539 49.5907 39.9368 49.0152 39.9368 48.3052V11.2855C39.9366 10.5755 39.3537 10 38.6344 10Z" fill="#83C1D8"/>
<path d="M60.8346 37.6802C60.1151 37.6802 59.5322 38.2557 59.5322 38.9656V64.7142C59.5322 65.424 60.1151 65.9997 60.8346 65.9997C61.5541 65.9997 62.137 65.4242 62.137 64.7142V38.9656C62.137 38.2557 61.5539 37.6802 60.8346 37.6802Z" fill="#83C1D8"/>
<path d="M60.8346 10C60.1151 10 59.5322 10.5755 59.5322 11.2855V34.6806C59.5322 35.3904 60.1151 35.966 60.8346 35.966C61.5541 35.966 62.137 35.3905 62.137 34.6806V11.2855C62.137 10.5755 61.5539 10 60.8346 10Z" fill="#83C1D8"/>
<path d="M75.8099 28.1033C76.5294 28.1033 77.1123 27.5278 77.1123 26.8178V18.3341C77.1123 17.6243 76.5294 17.0487 75.8099 17.0487H70.2061V11.7588C70.2061 9.1604 68.7798 6.7569 66.4834 5.48598L61.4712 2.71168C61.0758 2.49259 60.5929 2.49259 60.1973 2.71168L55.1853 5.48598C52.889 6.75675 51.4627 9.1604 51.4627 11.7588V17.0487H48.0058V11.7588C48.0058 9.1604 46.5795 6.7569 44.2832 5.48598L39.271 2.71168C38.8756 2.49259 38.3927 2.49259 37.9972 2.71168L32.9851 5.48598C30.6888 6.75675 29.2625 9.1604 29.2625 11.7588V17.0487H25.3981V11.7588C25.3981 9.1604 23.9718 6.7569 21.6755 5.48598L16.6631 2.71168C16.2676 2.49259 15.7847 2.49259 15.3891 2.71168L10.3771 5.48598C9.74964 5.83318 9.52646 6.61663 9.87822 7.23591C10.2301 7.85519 11.0239 8.07577 11.6512 7.72828L16.0263 5.30652L20.4017 7.72828C21.877 8.54483 22.7935 10.0892 22.7935 11.7587V64.2414C22.7935 65.9109 21.877 67.4552 20.4017 68.2719L16.0265 70.6934L11.6513 68.2719C10.1758 67.4552 9.25951 65.9109 9.25951 64.2414V11.7588C9.25951 11.2964 9.32929 10.8383 9.4672 10.3973C9.67925 9.71897 9.2938 8.99935 8.60652 8.7902C7.91893 8.5809 7.19029 8.9615 6.97824 9.63971C6.76378 10.3264 6.6549 11.0395 6.6549 11.7588V17.0487H1.41469C0.695519 17.0487 0.112305 17.6242 0.112305 18.3341V26.8178C0.112305 27.5276 0.695369 28.1033 1.41469 28.1033H6.65535V47.8968H1.41469C0.695519 47.8968 0.112305 48.4723 0.112305 49.1823V57.6659C0.112305 58.3757 0.695369 58.9514 1.41469 58.9514H6.65535V64.2419C6.65535 66.8403 8.08165 69.2438 10.378 70.5147L15.39 73.289C15.5879 73.3985 15.8075 73.4531 16.0269 73.4531C16.2464 73.4531 16.4661 73.3985 16.6638 73.289L21.6761 70.5147C23.9721 69.2439 25.3987 66.8403 25.3987 64.2419V58.9514H29.2631V64.2419C29.2631 66.8403 30.6894 69.2438 32.9857 70.5147L37.9978 73.289C38.1957 73.3985 38.4153 73.4531 38.6347 73.4531C38.8541 73.4531 39.0738 73.3985 39.2716 73.289L44.284 70.5147C46.58 69.2436 48.0063 66.8403 48.0063 64.2419V58.9514H51.4632V64.2419C51.4632 66.8401 52.8896 69.2438 55.1858 70.5147L60.1979 73.289C60.3956 73.3985 60.6152 73.4531 60.8348 73.4531C61.0543 73.4531 61.2739 73.3985 61.4717 73.289L66.484 70.5147C68.7801 69.2436 70.2064 66.8403 70.2064 64.2419V58.9514H75.8102C76.5297 58.9514 77.1126 58.3759 77.1126 57.6659V49.1823C77.1126 48.4724 76.5297 47.8968 75.8102 47.8968H70.2064V28.1033H75.8099ZM70.2062 19.6195H74.5077V25.5323H70.2062V19.6195ZM6.65535 56.3802H2.71692V50.4673H6.65535V56.3802ZM6.65535 25.5323H2.71692V19.6195H6.65535V25.5323ZM29.2628 56.3802H25.3984V50.4673H29.2628V56.3802ZM29.2628 47.8967H25.3984V28.1033H29.2628V47.8967ZM29.2628 25.5323H25.3984V19.6195H29.2628V25.5323ZM45.4014 64.2414C45.4014 65.9109 44.4849 67.4552 43.0099 68.2719L38.6346 70.6934L34.2595 68.2719C32.7841 67.4552 31.8677 65.9109 31.8677 64.2414V11.7588C31.8677 10.0893 32.7842 8.54498 34.2595 7.72828L38.6346 5.30652L43.0099 7.72828C44.4852 8.54483 45.4014 10.0892 45.4014 11.7588V64.2414ZM51.4629 56.3802H48.006V50.4673H51.4629V56.3802ZM51.4629 47.8967H48.006V28.1033H51.4629V47.8967ZM51.4629 25.5323H48.006V19.6195H51.4629V25.5323ZM67.6014 64.2414C67.6014 65.9109 66.685 67.4552 65.2099 68.2719L60.8346 70.6934L56.4598 68.2719C54.9843 67.4552 54.0678 65.9109 54.0678 64.2414V11.7588C54.0678 10.0893 54.9843 8.54498 56.4598 7.72828L60.8346 5.30652L65.2099 7.72828C66.6853 8.54483 67.6014 10.0892 67.6014 11.7588V64.2414ZM70.2062 50.4673H74.5077V56.3802H70.2062V50.4673Z" fill="#83C1D8"/>
</g>
<defs>
<clipPath id="clip0_503_920">
<rect width="77" height="76" fill="white" transform="translate(0.112305)"/>
</clipPath>
</defs>
</svg>
