<svg width="57" height="65" viewBox="0 0 57 65" fill="none" xmlns="http://www.w3.org/2000/svg">
<path d="M49.4584 28.7212C49.004 28.3143 48.2673 28.3143 47.8132 28.7212C46.8492 29.5845 45.2807 29.5845 44.3168 28.7212C43.3528 27.8579 43.3528 26.4532 44.3168 25.5899C44.7712 25.1829 44.7712 24.5231 44.3168 24.1164C43.8624 23.7093 43.1257 23.7095 42.6716 24.1164C41.8035 24.8939 41.339 25.8975 41.2763 26.9176C41.2671 26.9252 41.2574 26.9322 41.2484 26.9402L34.626 32.8713V24.6092C36.1139 23.5208 37.0659 21.866 37.0659 20.0154C37.0659 19.4399 36.545 18.9734 35.9025 18.9734C35.26 18.9734 34.739 19.4399 34.739 20.0154C34.739 22.1361 32.8125 23.8615 30.4447 23.8615C29.7222 23.8615 29.0073 23.6974 28.3779 23.3871C28.0064 23.2038 27.5532 23.2164 27.1948 23.4194C26.6845 23.7087 26.095 23.8615 25.4898 23.8615C23.7277 23.8615 22.2941 22.5775 22.2941 20.9993C22.2941 20.4239 21.7731 19.9574 21.1306 19.9574C20.4881 19.9574 19.9672 20.4239 19.9672 20.9993C19.9672 22.4296 20.6493 23.7193 21.7364 24.623V28.9947L15.9092 23.7758C15.8874 23.7562 15.8642 23.7382 15.8411 23.7207C15.7237 22.7868 15.2674 21.8808 14.4694 21.1661C14.015 20.759 13.2784 20.7591 12.8243 21.1661C12.3699 21.573 12.3699 22.2325 12.8243 22.6395C13.7882 23.5028 13.7882 24.9076 12.8243 25.7709C12.2075 26.3233 11.2991 26.5446 10.4532 26.3485C9.83171 26.2046 9.19644 26.5391 9.03544 27.0963C8.87444 27.6534 9.24826 28.2218 9.87033 28.366C10.2651 28.4576 10.6667 28.502 11.066 28.502C11.203 28.502 11.3396 28.4958 11.4756 28.4853L19.9879 36.1091C21.1156 37.1191 21.7366 38.4617 21.7366 39.8899V63.193C21.7366 63.7684 22.2575 64.235 22.9 64.235C23.5425 64.235 24.0634 63.7684 24.0634 63.193V39.89C24.0634 37.9052 23.2003 36.0391 21.6332 34.6355L13.8799 27.6915C14.0878 27.5577 14.2857 27.409 14.4696 27.2443C14.8216 26.9289 15.1073 26.5765 15.327 26.2008L22.0775 32.2466C22.3 32.4459 22.5976 32.5518 22.9004 32.5518C23.0503 32.5518 23.2015 32.5258 23.3455 32.4724C23.7803 32.3112 24.0637 31.9312 24.0637 31.5098V25.7766C24.5189 25.8858 24.9971 25.9448 25.4902 25.9448C26.3108 25.9448 27.1149 25.7821 27.8496 25.4705C28.6666 25.7821 29.5523 25.9448 30.4451 25.9448C31.0889 25.9448 31.7108 25.8606 32.2995 25.7064V35.3862C32.2995 35.8077 32.5829 36.1876 33.0177 36.3488C33.1616 36.4022 33.3128 36.4282 33.4628 36.4282C33.7656 36.4282 34.0631 36.3223 34.2857 36.123L41.9062 29.2981C42.1119 29.6188 42.3665 29.9208 42.6721 30.1945C42.9005 30.3991 43.1479 30.5803 43.4106 30.7374L35.798 37.5552C33.5421 39.5756 32.2995 42.2621 32.2995 45.1194V52.5318C32.2995 53.1073 32.8205 53.5738 33.4629 53.5738C34.1054 53.5738 34.6264 53.1073 34.6264 52.5318V45.1194C34.6264 42.8186 35.6267 40.6556 37.4432 39.0287L45.9051 31.4501C45.9585 31.4516 46.0117 31.4536 46.0652 31.4536C47.3471 31.4536 48.5522 31.0066 49.4586 30.1947C49.9126 29.7877 49.9126 29.1279 49.4584 28.7212Z" fill="white"/>
<path d="M33.4593 55.2439C32.8168 55.2439 32.2959 55.7104 32.2959 56.2859V63.193C32.2959 63.7684 32.8168 64.2349 33.4593 64.2349C34.1018 64.2349 34.6228 63.7684 34.6228 63.193V56.2859C34.6226 55.7104 34.1018 55.2439 33.4593 55.2439Z" fill="white"/>
<path d="M20.8527 45.9321C20.6841 45.3771 20.0444 45.0494 19.4248 45.2006C18.9943 45.3056 18.547 45.3588 18.0954 45.3588C15.312 45.3588 13.0476 43.3308 13.0476 40.838C13.0476 40.5847 13.0729 40.3249 13.1224 40.0658C13.1894 39.7168 13.0541 39.3615 12.7629 39.122C12.4718 38.8825 12.0649 38.7919 11.6823 38.8811C11.1429 39.0071 10.5854 39.0708 10.0252 39.0708C6.41611 39.0708 3.47997 36.4411 3.47997 33.2088C3.47997 31.8238 4.03063 30.4793 5.03056 29.4225C5.23907 29.2023 5.33617 28.9143 5.29839 28.6274C5.26088 28.3405 5.09196 28.0806 4.83232 27.9094C3.53262 27.0532 2.63383 25.8092 2.30168 24.4061C2.16846 23.8432 1.55139 23.4834 0.922236 23.6031C0.293639 23.7224 -0.107691 24.2755 0.0255301 24.8385C0.395465 26.401 1.28203 27.8173 2.56117 28.9159C1.64738 30.1902 1.15325 31.6815 1.15325 33.2087C1.15325 37.5901 5.13321 41.1545 10.0252 41.1545C10.2598 41.1545 10.4943 41.1462 10.7277 41.1296C10.8988 44.6365 14.1379 47.4424 18.0951 47.4424C18.7532 47.4424 19.4059 47.3646 20.0355 47.2111C20.6556 47.0601 21.0214 46.4875 20.8527 45.9321Z" fill="white"/>
<path d="M46.2247 6.19823C45.42 5.94667 44.5817 5.80135 43.7273 5.76502C42.8729 2.92789 39.9773 0.887497 36.6093 0.887497C35.2438 0.887497 33.9028 1.23088 32.7473 1.86639C31.4254 1.00295 29.8348 0.535156 28.179 0.535156C26.5233 0.535156 24.9327 1.00283 23.6109 1.86626C22.4554 1.23063 21.1144 0.887372 19.7489 0.887372C16.3808 0.887372 13.4853 2.92789 12.6309 5.7649C7.93651 5.96533 4.1866 9.44868 4.1866 13.7016C4.1866 14.5389 4.32871 15.3539 4.61002 16.1353C2.57253 17.0901 0.989574 18.7422 0.269708 20.715C0.0702237 21.262 0.403762 21.8504 1.01444 22.029C1.13446 22.064 1.25629 22.0809 1.37604 22.0809C1.86572 22.0809 2.32137 21.8019 2.48168 21.3623C3.105 19.6539 4.60585 18.2714 6.49692 17.6645C6.80698 17.5648 7.0555 17.3523 7.18053 17.0795C7.30569 16.8066 7.29583 16.499 7.15344 16.233C6.72877 15.44 6.51345 14.5882 6.51345 13.7018C6.51345 10.4695 9.44973 7.83975 13.0588 7.83975C13.1895 7.83975 13.3322 7.84473 13.5069 7.85518C14.1237 7.8935 14.6655 7.4909 14.7401 6.94099C15.0465 4.67777 17.2 2.97106 19.7489 2.97106C20.922 2.97106 22.0227 3.32128 22.9316 3.98366C23.3828 4.31261 24.0365 4.29234 24.4612 3.93589C25.4733 3.08676 26.7936 2.61897 28.1787 2.61897C29.564 2.61897 30.8841 3.08676 31.8964 3.93589C32.3211 4.29234 32.9748 4.31261 33.426 3.98366C34.3352 3.32116 35.4357 2.97106 36.6089 2.97106C39.1579 2.97106 41.3112 4.67777 41.6177 6.94099C41.6921 7.49077 42.2339 7.893 42.8508 7.85505C43.0259 7.84448 43.1683 7.83963 43.299 7.83963C44.0395 7.83963 44.7657 7.94924 45.4572 8.16559C46.0641 8.3552 46.7273 8.06842 46.939 7.52523C47.1513 6.98204 46.8313 6.38784 46.2247 6.19823Z" fill="white"/>
<path d="M56.5254 23.1825C56.5254 20.1997 54.6476 17.4866 51.7487 16.1331C52.0298 15.3519 52.1718 14.5374 52.1718 13.7003C52.1718 11.6041 51.2686 9.62637 49.6282 8.13141C49.1779 7.72097 48.4415 7.71537 47.983 8.11847C47.5246 8.52182 47.5184 9.18159 47.9686 9.59191C49.1787 10.6947 49.8451 12.1537 49.8451 13.7002C49.8451 14.5868 49.6298 15.4384 49.2051 16.2314C49.0627 16.4974 49.0527 16.8051 49.178 17.0779C49.3032 17.3507 49.5516 17.5635 49.8616 17.6629C52.456 18.4955 54.1989 20.7134 54.1989 23.1822C54.1989 25.0385 53.1996 26.805 51.526 27.9073C51.2662 28.0785 51.0974 28.3384 51.0598 28.6253C51.0221 28.912 51.1192 29.2001 51.3276 29.4204C52.3275 30.477 52.8782 31.8217 52.8782 33.2067C52.8782 36.439 49.942 39.0687 46.333 39.0687C45.7727 39.0687 45.2151 39.0049 44.6759 38.879C44.2931 38.7898 43.8863 38.8803 43.5952 39.1198C43.3042 39.3593 43.1686 39.7149 43.2357 40.0636C43.2854 40.3228 43.3106 40.5826 43.3106 40.8359C43.3106 43.3286 41.0461 45.3567 38.2628 45.3567C37.7855 45.3567 37.3136 45.2974 36.8601 45.1802C36.2425 45.0208 35.5979 45.3397 35.4198 45.8926C35.2419 46.4455 35.5979 47.023 36.2153 47.1825C36.8783 47.3537 37.5672 47.4405 38.2625 47.4405C42.2197 47.4405 45.4588 44.6346 45.6299 41.1278C45.8635 41.1443 46.0978 41.1526 46.3324 41.1526C51.2245 41.1526 55.2043 37.5881 55.2043 33.2068C55.2043 31.679 54.7101 30.1875 53.7957 28.9129C55.5222 27.4245 56.5254 25.3488 56.5254 23.1825Z" fill="white"/>
<path d="M26.4837 45.7786C25.8412 45.7786 25.3203 46.2451 25.3203 46.8205V51.544C25.3203 52.1195 25.8412 52.586 26.4837 52.586C27.1262 52.586 27.6472 52.1195 27.6472 51.544V46.8205C27.6472 46.2451 27.1262 45.7786 26.4837 45.7786Z" fill="white"/>
</svg>
